<?xml version="1.0" encoding="utf-8"?>
<!-- Generator: Adobe Illustrator 20.1.0, SVG Export Plug-In . SVG Version: 6.00 Build 0)  -->
<svg version="1.1" id="Layer_1" xmlns="http://www.w3.org/2000/svg" xmlns:xlink="http://www.w3.org/1999/xlink" x="0px" y="0px"
	 viewBox="0 0 1347 681.4" style="enable-background:new 0 0 1347 681.4;" xml:space="preserve">
<style type="text/css">
	.st0{opacity:0.8;}
	.st1{opacity:0.6;fill:#F1F1F2;stroke:#BBBDBF;stroke-width:2;stroke-miterlimit:10;enable-background:new    ;}
	.st2{opacity:0.6;fill:#BBBDBF;enable-background:new    ;}
	
		.st3{opacity:0.6;fill:none;stroke:#BBBDBF;stroke-width:3;stroke-linecap:round;stroke-linejoin:round;stroke-miterlimit:10;enable-background:new    ;}
	.st4{opacity:0.6;fill:none;stroke:#BBBDBF;stroke-width:4;stroke-linecap:round;stroke-miterlimit:10;enable-background:new    ;}
	.st5{opacity:0.6;}
	.st6{fill:#FFFFFF;}
	.st7{fill:#D0D2D3;}
	.st8{enable-background:new    ;}
	.st9{fill:#A6A8AB;}
	.st10{font-family:'HelveticaNeue';}
	.st11{font-size:13.2911px;}
	.st12{fill:none;stroke:#D0D2D3;stroke-width:2;stroke-linecap:round;stroke-linejoin:round;stroke-miterlimit:10;}
	.st13{fill:none;stroke:#E6E7E8;stroke-miterlimit:10;}
	.st14{opacity:0.6;fill:#F1F1F2;stroke:#BBBDBF;stroke-miterlimit:10;enable-background:new    ;}
	.st15{opacity:0.6;fill:#A6A8AB;enable-background:new    ;}
	.st16{fill:#F1F1F2;stroke:#BBBDBF;stroke-miterlimit:10;}
	.st17{fill:none;stroke:#BBBDBF;stroke-width:3;stroke-linecap:round;stroke-linejoin:round;stroke-miterlimit:10;}
	.st18{fill:#F1F1F2;}
	.st19{fill:#BBBDBF;}
	.st20{fill:none;stroke:#BBBDBF;stroke-width:2;stroke-linecap:round;stroke-linejoin:round;stroke-miterlimit:10;}
	.st21{clip-path:url(#SVGID_2_);}
	.st22{opacity:0.5;fill:#E6E7E8;enable-background:new    ;}
	.st23{fill:none;stroke:#E6E7E8;stroke-width:2;stroke-linecap:round;stroke-linejoin:round;stroke-miterlimit:10;}
	.st24{font-size:20px;}
	.st25{font-size:12px;}
	.st26{fill:none;stroke:#D0D2D3;stroke-width:1.5;stroke-linecap:round;stroke-linejoin:round;}
	.st27{fill:none;stroke:#D0D2D3;stroke-width:1.5;stroke-linecap:round;stroke-linejoin:round;stroke-dasharray:3.9729,5.9594;}
	.st28{fill:none;stroke:#D1D3D4;stroke-miterlimit:10;}
	.st29{fill:#F1F2F2;}
	.st30{font-size:10px;}
	.st31{fill:#E6E7E8;}
	.st32{fill:#929497;}
	.st33{font-size:13px;}
	.st34{fill:none;stroke:#A6A8AB;stroke-width:2;stroke-linecap:round;stroke-linejoin:round;stroke-miterlimit:10;}
	.st35{font-size:9.4734px;}
	.st36{fill:none;stroke:#D0D2D3;stroke-width:2;stroke-linecap:round;stroke-miterlimit:10;}
	.st37{fill:none;stroke:#A6A8AB;stroke-width:2;stroke-linecap:round;stroke-miterlimit:10;}
	.st38{opacity:0.6;fill:#FFFFFF;stroke:#D0D2D3;stroke-miterlimit:10;enable-background:new    ;}
	.st39{opacity:0.6;fill:#929497;enable-background:new    ;}
	.st40{fill:#FFFFFF;stroke:#D0D2D3;stroke-miterlimit:10;}
	.st41{opacity:0.6;fill:#FFFFFF;enable-background:new    ;}
	.st42{opacity:0.6;fill:none;stroke:#E6E7E8;stroke-miterlimit:10;enable-background:new    ;}
	.st43{opacity:0.6;fill:#808184;enable-background:new    ;}
	.st44{font-size:14px;}
	.st45{font-size:11px;}
	.st46{fill:none;}
	.st47{opacity:0.6;fill:none;stroke:#D0D2D3;stroke-miterlimit:10;enable-background:new    ;}
	.st48{font-size:12.5569px;}
	.st49{fill:#FFFFFF;stroke:#929497;stroke-width:0.5;stroke-miterlimit:10;}
	.st50{opacity:0.75;fill:#D0D2D3;stroke:#6D6E70;stroke-width:0.5;stroke-miterlimit:10;enable-background:new    ;}
	.st51{fill:#808184;}
	.st52{font-size:18px;}
	.st53{fill:none;stroke:#58595B;stroke-linecap:round;stroke-linejoin:round;stroke-miterlimit:10;}
	.st54{fill:#58595B;}
	.st55{font-size:13.6409px;}
	.st56{fill:none;stroke:#58595B;stroke-width:0.75;stroke-miterlimit:10;}
	.st57{font-size:21.0787px;}
	.st58{fill:#404041;}
	.st59{font-size:13.0597px;}
	.st60{clip-path:url(#SVGID_4_);}
</style>
<g id="Layer_1_1_" class="st0">
	<path class="st1" d="M798.1,401.6c9.7-3.5,17.5-14.2,17.5-23.9s-7.8-14.6-17.5-11.1l-25,9.1c-9.7,3.5-17.5,14.2-17.5,23.9
		c0,9.7,7.8,14.6,17.5,11.1L798.1,401.6z"/>
	<path class="st1" d="M165.7,678.6c0,8.3-6.7,17.4-15,20.5c-8.3,3-15-1.3-15-9.5c0-8.3,6.7-17.4,15-20.5S165.7,670.3,165.7,678.6z"
		/>
	<path class="st1" d="M205.7,664c0,8.3-6.7,17.4-15,20.5c-8.3,3-15-1.3-15-9.5c0-8.3,6.7-17.4,15-20.5
		C199,651.5,205.7,655.7,205.7,664z"/>
	<path class="st2" d="M785.6,388.7c0,6.9-5.6,14.5-12.5,17s-12.5-1-12.5-8c0-6.9,5.6-14.5,12.5-17S785.6,381.8,785.6,388.7z"/>
	<path class="st1" d="M773.1,311.8c-9.7,3.5-17.5,14.2-17.5,23.9s7.8,14.6,17.5,11.1l25-9.1c9.7-3.5,17.5-14.2,17.5-23.9
		c0-9.7-7.8-14.6-17.5-11.1L773.1,311.8z"/>
	<path class="st2" d="M785.6,324.7c0-6.9,5.6-14.5,12.5-17s12.5,1,12.5,8c0,6.9-5.6,14.5-12.5,17
		C791.2,335.2,785.6,331.6,785.6,324.7z"/>
	<path class="st2" d="M158.8,681.1c0,4.4-3.6,9.4-8.1,11s-8.1-0.7-8.1-5.1s3.6-9.4,8.1-11S158.8,676.7,158.8,681.1z"/>
	<path class="st1" d="M165.7,64.5c0,2.8-2.2,5.8-5,6.8l-20,7.3c-2.8,1-5-0.4-5-3.2v-20c0-2.8,2.2-5.8,5-6.8l20-7.3
		c2.8-1,5,0.4,5,3.2V64.5z"/>
	<polyline class="st3" points="143.9,62.5 148.7,65.5 158.2,52.5 	"/>
	<path class="st1" d="M205.7,50c0,2.8-2.2,5.8-5,6.8l-20,7.3c-2.8,1-5-0.4-5-3.2v-20c0-2.8,2.2-5.8,5-6.8l20-7.3c2.8-1,5,0.4,5,3.2
		V50z"/>
	<line class="st4" x1="923.8" y1="287.2" x2="854.9" y2="312.3"/>
	<path class="st1" d="M893.8,298.2c0-5.5,4.5-11.6,10-13.6s10,0.8,10,6.4c0,5.5-4.5,11.6-10,13.6
		C898.3,306.5,893.8,303.7,893.8,298.2z"/>
	<path class="st2" d="M899.6,296c0-2.3,1.9-4.9,4.2-5.7c2.3-0.8,4.2,0.4,4.2,2.7c0,2.3-1.9,4.9-4.2,5.7
		C901.5,299.5,899.6,298.4,899.6,296z"/>
	<line class="st4" x1="854.9" y1="286.7" x2="923.8" y2="261.7"/>
	<path class="st1" d="M884.9,275.8c0,5.5-4.5,11.6-10,13.6s-10-0.8-10-6.4c0-5.5,4.5-11.6,10-13.6
		C880.5,267.4,884.9,270.3,884.9,275.8z"/>
	<path class="st2" d="M879.1,277.9c0,2.3-1.9,4.9-4.2,5.7c-2.3,0.8-4.2-0.4-4.2-2.7c0-2.3,1.9-4.9,4.2-5.7
		C877.3,274.4,879.1,275.6,879.1,277.9z"/>
	<g class="st5">
		<g>
			<path class="st6" d="M1072.2-27.3c-1.1,0-1.8-0.8-1.8-1.9v-36c0-1.3,1-2.7,2.3-3.2l96-34.9c0.3-0.1,0.6-0.2,0.9-0.2
				c1.1,0,1.8,0.8,1.8,1.9v36c0,1.3-1,2.7-2.3,3.2l-96,34.9C1072.7-27.4,1072.4-27.3,1072.2-27.3z"/>
			<path class="st7" d="M1169.5-103c0.8,0,1.3,0.5,1.3,1.4v36c0,1.1-0.9,2.3-2,2.7l-96,34.9c-0.2,0.1-0.5,0.1-0.7,0.1
				c-0.8,0-1.3-0.5-1.3-1.4v-36c0-1.1,0.9-2.3,2-2.7l96-34.9C1169.1-103,1169.3-103,1169.5-103 M1169.5-104c-0.3,0-0.7,0.1-1,0.2
				l-96,34.9c-1.5,0.5-2.7,2.2-2.7,3.7v36c0,1.4,1,2.4,2.3,2.4c0.3,0,0.7-0.1,1-0.2l96-34.9c1.5-0.5,2.7-2.2,2.7-3.7v-36
				C1171.8-103,1170.9-104,1169.5-104L1169.5-104z"/>
		</g>
		<g id="XMLID_63_">
			<g>
				<g>
					<path class="st6" d="M1182.2-67.4c-1.1,0-1.8-0.8-1.8-1.9v-36c0-1.3,1-2.7,2.3-3.2l68-24.8c0.4-0.1,0.8-0.2,1.2-0.2
						c0.6,0,1.1,0.2,1.5,0.5c0.5,0.4,11.6,13.1,11.7,13.2l-0.3,0.4l0.4-0.3c0.4,0.5,0.6,1,0.6,1.7c0,0.6-0.2,1.3-0.5,1.8l-0.2,0.3
						c-11.2,21-11.5,21.4-11.6,21.6c-0.5,0.8-1.3,1.4-2.1,1.8l0,0l-0.3,0.1l-68,24.8C1182.7-67.4,1182.4-67.4,1182.2-67.4z"/>
					<path class="st7" d="M1251.8-132.9c0.5,0,0.9,0.1,1.2,0.4c0.4,0.3,8.6,9.7,11.6,13.1c0,0.1,0.1,0.1,0.1,0.2
						c0.3,0.3,0.4,0.8,0.4,1.3s-0.1,1.1-0.4,1.6c0,0.1-0.1,0.2-0.2,0.3c-3,5.7-11.2,21-11.6,21.5c-0.5,0.8-1.3,1.5-2.2,1.8l0,0
						l-68,24.7c-0.2,0.1-0.5,0.1-0.7,0.1c-0.8,0-1.3-0.5-1.3-1.4v-36c0-1.1,0.9-2.3,2-2.7l68-24.7
						C1251.2-132.9,1251.5-132.9,1251.8-132.9 M1251.8-133.9L1251.8-133.9c-0.4,0-0.9,0.1-1.3,0.2l-68,24.7
						c-1.5,0.5-2.7,2.2-2.7,3.7v36c0,1.4,1,2.4,2.3,2.4c0.3,0,0.7-0.1,1-0.2l68-24.7l0.7-0.2v-0.1c0.8-0.4,1.5-1.1,2-1.9
						c0.1-0.2,0.4-0.6,11.6-21.6l0.1-0.1c0-0.1,0.1-0.1,0.1-0.2c0.3-0.7,0.5-1.4,0.5-2.1c0-0.8-0.2-1.4-0.6-1.9l-0.1-0.1l0,0l0,0
						l0,0c-1.1-1.3-11.2-12.9-11.8-13.3C1253.1-133.7,1252.5-133.9,1251.8-133.9L1251.8-133.9z"/>
				</g>
			</g>
		</g>
		<g id="XMLID_62_">
			<g>
				<g>
					<path class="st6" d="M989.7,2.6c-0.6,0-1.1-0.2-1.5-0.5S977-10.5,976.6-11l-0.1-0.1c-0.4-0.5-0.6-1-0.6-1.7
						c0-0.6,0.2-1.3,0.5-1.8l0.2-0.3c5.1-9.6,11.3-21.1,11.6-21.6c0.5-0.8,1.3-1.4,2.1-1.8l0,0l0.3-0.1l68-24.8
						c0.3-0.1,0.6-0.2,0.9-0.2c1.1,0,1.8,0.8,1.8,1.9v36c0,1.3-1,2.7-2.3,3.2L991,2.5C990.5,2.6,990.1,2.6,989.7,2.6z"/>
					<path class="st7" d="M1059.4-62.9c0.8,0,1.3,0.5,1.3,1.4v36c0,1.1-0.9,2.3-2,2.7l-68,24.7c-0.3,0.1-0.7,0.2-1,0.2
						c-0.5,0-0.9-0.1-1.2-0.4c-0.4-0.3-8.6-9.7-11.6-13.1c0-0.1-0.1-0.1-0.1-0.2c-0.3-0.3-0.4-0.8-0.4-1.3s0.1-1.1,0.4-1.6
						c0-0.1,0.1-0.2,0.2-0.3c3-5.7,11.2-21,11.6-21.5c0.5-0.8,1.3-1.5,2.2-1.8l0,0l68-24.7C1059-62.9,1059.2-62.9,1059.4-62.9
						 M1059.4-63.9L1059.4-63.9c-0.3,0-0.7,0.1-1,0.2l-68,24.7l-0.7,0.2v0.1c-0.8,0.4-1.5,1.1-2,1.9c-0.1,0.1-0.4,0.6-11.6,21.6
						l-0.1,0.1c0,0.1-0.1,0.1-0.1,0.2c-0.3,0.7-0.5,1.4-0.5,2.1c0,0.8,0.2,1.4,0.6,1.9l0,0l0.1,0.1l0,0l0,0l0,0
						c2.6,3,11.3,12.9,11.8,13.3c0.5,0.4,1.1,0.6,1.8,0.6c0.4,0,0.9-0.1,1.3-0.2l68-24.7c1.5-0.5,2.7-2.2,2.7-3.7v-36
						C1061.7-62.9,1060.8-63.9,1059.4-63.9L1059.4-63.9z"/>
				</g>
			</g>
		</g>
		<text transform="matrix(1 -0.364 0 1 1097.5906 -52.4554)" class="st9 st10 st11">Hire Me</text>
		<text transform="matrix(1 -0.364 0 1 1204.698 -91.4396)" class="st9 st10 st11">Next</text>
		<text transform="matrix(1 -0.364 0 1 1006.6275 -19.3488)" class="st9 st10 st11">Back</text>
	</g>
	<g class="st5">
		<g>
			<path class="st6" d="M990.8,73.3c-0.6,0-1.1-0.2-1.5-0.5c-0.5-0.4-11.2-12.7-11.7-13.2c0-0.1-0.1-0.1-0.1-0.1
				c-0.4-0.5-0.6-1-0.6-1.7c0-0.6,0.2-1.3,0.5-1.8l0.2-0.3c5.1-9.6,11.3-21.1,11.6-21.6c0.5-0.8,1.3-1.4,2.1-1.8l0,0l0.3-0.1l140-51
				c0.4-0.1,0.8-0.2,1.2-0.2c0.6,0,1.1,0.2,1.5,0.5c0.5,0.4,11.6,13.1,11.7,13.2c0,0.1,0.1,0.1,0.1,0.1c0.4,0.5,0.6,1,0.6,1.7
				c0,0.6-0.2,1.3-0.5,1.8l-0.2,0.3c-11.2,21-11.5,21.4-11.6,21.6c-0.5,0.8-1.3,1.4-2.1,1.8l0,0l-0.3,0.1l-140,51
				C991.5,73.3,991.1,73.3,990.8,73.3L990.8,73.3z"/>
			<path class="st7" d="M1132.7-18.5c0.5,0,0.9,0.1,1.2,0.4c0.4,0.3,8.6,9.7,11.6,13.1c0,0.1,0.1,0.1,0.1,0.2
				c0.3,0.3,0.4,0.8,0.4,1.3s-0.1,1.1-0.4,1.6c0,0.1-0.1,0.2-0.2,0.3c-3,5.7-11.2,21-11.6,21.5c-0.5,0.8-1.3,1.5-2.2,1.8l0,0
				l-140,51c-0.3,0.1-0.7,0.2-1,0.2c-0.5,0-0.9-0.1-1.2-0.4c-0.4-0.3-8.6-9.7-11.6-13.1c0-0.1-0.1-0.1-0.1-0.2
				c-0.3-0.3-0.4-0.8-0.4-1.3s0.1-1.1,0.4-1.6c0-0.1,0.1-0.2,0.2-0.3c3-5.7,11.2-21,11.6-21.5c0.5-0.8,1.3-1.5,2.2-1.8l0,0l140-51
				C1132.1-18.4,1132.4-18.5,1132.7-18.5 M1132.7-19.5c-0.4,0-0.9,0.1-1.3,0.2l-140,51l-0.7,0.2V32c-0.8,0.4-1.5,1.1-2,1.9
				c-0.1,0.1-0.4,0.6-11.6,21.6l-0.1,0.1c0,0.1-0.1,0.1-0.1,0.2c-0.3,0.7-0.5,1.4-0.5,2.1c0,0.8,0.2,1.4,0.6,1.9l0,0l0.1,0.1l0,0
				l0,0l0,0c2.6,3,11.3,12.9,11.8,13.3s1.1,0.6,1.8,0.6c0.4,0,0.9-0.1,1.3-0.2l140-51l0.7-0.2v-0.1c0.8-0.4,1.5-1.1,2-1.9
				c0.1-0.2,0.4-0.6,11.6-21.6l0.1-0.1c0-0.1,0.1-0.1,0.1-0.2c0.3-0.7,0.5-1.4,0.5-2.1c0-0.8-0.2-1.4-0.6-1.9l0,0v-0.1l0,0l0,0l0,0
				c-1.1-1.3-11.2-12.9-11.7-13.3C1134-19.3,1133.4-19.5,1132.7-19.5L1132.7-19.5z"/>
		</g>
		<text transform="matrix(1 -0.364 0 1 1085.593 22.9996)" class="st9 st10 st11">Next</text>
		<text transform="matrix(1 -0.364 0 1 1007.6351 51.3733)" class="st9 st10 st11">Back</text>
		<g>
			<path class="st6" d="M1224.6-12.8c-8.2,0-13.7-5.8-13.7-14.5c0-11.2,9.1-23.7,20.3-27.7c2.4-0.9,4.8-1.3,7-1.3
				c8.2,0,13.7,5.8,13.7,14.5c0,11.2-9.1,23.7-20.3,27.7C1229.2-13.2,1226.9-12.8,1224.6-12.8z"/>
			<path class="st7" d="M1238.3-55.9c7.7,0,13.2,5.4,13.2,14c0,11-9,23.3-20,27.3c-2.4,0.9-4.7,1.3-6.8,1.3c-7.7,0-13.2-5.4-13.2-14
				c0-11,9-23.3,20-27.3C1233.9-55.5,1236.2-55.9,1238.3-55.9 M1238.3-56.9c-2.3,0-4.7,0.5-7.2,1.3c-11.4,4.1-20.7,16.8-20.7,28.2
				c0,9,5.7,15,14.2,15c2.3,0,4.7-0.5,7.2-1.3c11.4-4.1,20.7-16.8,20.7-28.2C1252.4-50.8,1246.8-56.9,1238.3-56.9L1238.3-56.9z"/>
		</g>
		<polyline class="st12" points="1229.7,-27.7 1236,-36.2 1229.7,-40.2 		"/>
		<g>
			<path class="st6" d="M1174.6,5.4c-8.2,0-13.7-5.8-13.7-14.5c0-11.2,9.1-23.7,20.3-27.7c2.4-0.9,4.8-1.3,7-1.3
				c8.2,0,13.7,5.8,13.7,14.5c0,11.2-9.1,23.7-20.3,27.7C1179.2,5,1176.9,5.4,1174.6,5.4z"/>
			<path class="st7" d="M1188.3-37.7c7.7,0,13.2,5.4,13.2,14c0,11-9,23.3-20,27.3c-2.4,0.9-4.7,1.3-6.8,1.3c-7.7,0-13.2-5.4-13.2-14
				c0-11,9-23.3,20-27.3C1183.9-37.3,1186.2-37.7,1188.3-37.7 M1188.3-38.7c-2.3,0-4.7,0.5-7.2,1.3c-11.4,4.1-20.7,16.8-20.7,28.2
				c0,9,5.7,15,14.2,15c2.3,0,4.7-0.5,7.2-1.3c11.4-4.1,20.7-16.8,20.7-28.2C1202.4-32.6,1196.8-38.7,1188.3-38.7L1188.3-38.7z"/>
		</g>
		<polyline class="st12" points="1183.2,-23.3 1176.9,-14.7 1183.2,-10.7 		"/>
		<line class="st13" x1="1061.7" y1="7.2" x2="1061.7" y2="47.2"/>
	</g>
	<g class="st5">
		<g>
			<path class="st6" d="M1076.7,323.2c-1.1,0-1.8-0.8-1.8-1.9v-36c0-1.3,1-2.7,2.3-3.2l84.6-30.8c0.3-0.1,0.6-0.2,0.9-0.2
				c1.1,0,1.8,0.8,1.8,1.9v36c0,1.3-1,2.7-2.3,3.2l-84.6,30.8C1077.2,323.1,1076.9,323.2,1076.7,323.2z"/>
			<path class="st7" d="M1162.6,251.6c0.8,0,1.3,0.5,1.3,1.4v36c0,1.1-0.9,2.3-2,2.7l-84.6,30.8c-0.2,0.1-0.5,0.1-0.7,0.1
				c-0.8,0-1.3-0.5-1.3-1.4v-36c0-1.1,0.9-2.3,2-2.7l84.6-30.8C1162.2,251.7,1162.4,251.6,1162.6,251.6 M1162.6,250.6
				c-0.3,0-0.7,0.1-1,0.2l-84.6,30.8c-1.5,0.5-2.7,2.2-2.7,3.7v36c0,1.4,1,2.4,2.3,2.4c0.3,0,0.7-0.1,1-0.2l84.6-30.8
				c1.5-0.5,2.7-2.2,2.7-3.7v-36C1164.9,251.6,1164,250.6,1162.6,250.6L1162.6,250.6z"/>
		</g>
		<g>
			<path class="st6" d="M892,390.4c-1.1,0-1.8-0.8-1.8-1.9v-36c0-1.3,1-2.7,2.3-3.2l164.6-59.9c0.3-0.1,0.6-0.2,0.9-0.2
				c1.1,0,1.8,0.8,1.8,1.9v36c0,1.3-1,2.7-2.3,3.2l-164.6,59.9C892.5,390.4,892.2,390.4,892,390.4z"/>
			<path class="st7" d="M1057.9,289.7c0.8,0,1.3,0.5,1.3,1.4v36c0,1.1-0.9,2.3-2,2.7l-164.6,59.9c-0.2,0.1-0.5,0.1-0.7,0.1
				c-0.8,0-1.3-0.5-1.3-1.4v-36c0-1.1,0.9-2.3,2-2.7l164.6-59.9C1057.5,289.8,1057.7,289.7,1057.9,289.7 M1057.9,288.7
				c-0.3,0-0.7,0.1-1,0.2l-164.6,59.9c-1.5,0.5-2.7,2.2-2.7,3.7v36c0,1.4,1,2.4,2.3,2.4c0.3,0,0.7-0.1,1-0.2l164.6-59.9
				c1.5-0.5,2.7-2.2,2.7-3.7v-36C1060.2,289.7,1059.3,288.7,1057.9,288.7L1057.9,288.7z"/>
		</g>
		<text transform="matrix(1 -0.364 0 1 920.4703 364.1433)" class="st9 st10 st11">Left</text>
		<text transform="matrix(1 -0.364 0 1 1000.414 335.0468)" class="st9 st10 st11">Right</text>
		<polyline class="st12" points="1138.9,286.4 1145.2,277.9 1138.9,273.9 		"/>
		<polyline class="st12" points="1099.4,288.3 1093.1,296.8 1099.4,300.8 		"/>
		<line class="st13" x1="974.9" y1="319.8" x2="974.9" y2="359.8"/>
		<line class="st13" x1="1119.6" y1="267.2" x2="1119.6" y2="307.2"/>
	</g>
	<g class="st5">
		<path class="st6" d="M156,160.5c-1.1,0-1.8-0.8-1.8-1.9v-36c0-1.3,1-2.7,2.3-3.2l213.3-77.6c0.3-0.1,0.6-0.2,0.9-0.2
			c1.1,0,1.8,0.8,1.8,1.9v36c0,1.3-1,2.7-2.3,3.2l-213.3,77.6C156.6,160.5,156.3,160.5,156,160.5z"/>
		<path class="st7" d="M370.7,42.1c0.8,0,1.3,0.5,1.3,1.4v36c0,1.1-0.9,2.3-2,2.7l-213.3,77.6c-0.2,0.1-0.5,0.1-0.7,0.1
			c-0.8,0-1.3-0.5-1.3-1.4v-36c0-1.1,0.9-2.3,2-2.7L370,42.3C370.2,42.2,370.4,42.1,370.7,42.1 M370.7,41.1c-0.3,0-0.7,0.1-1,0.2
			L156.3,119c-1.5,0.5-2.7,2.2-2.7,3.7v36c0,1.4,1,2.4,2.3,2.4c0.3,0,0.7-0.1,1-0.2l213.3-77.6c1.5-0.5,2.7-2.2,2.7-3.7v-36
			C373,42.1,372,41.1,370.7,41.1L370.7,41.1z"/>
	</g>
	<path class="st14" d="M425.8,21.9L390,35c-1.1,0.4-2,1.6-2,2.7v10.9v0.1v0.1c0,0.4-0.2,0.8-0.4,1.1c0,0,0,0,0,0.1
		c-0.1,0.1-0.2,0.2-0.2,0.3l-6.2,7c-0.1,0.1-0.2,0.2-0.2,0.3c-0.2,0.3-0.3,0.6-0.3,1c0,0.3,0.1,0.6,0.3,0.7c0.1,0,0.1,0.1,0.2,0.1
		l6.2,2.4c0.1,0,0.2,0,0.2,0.1l0,0c0.3,0.2,0.4,0.4,0.4,0.8v0.1v0.1v10.9c0,1.1,0.9,1.7,2,1.3l35.8-13c1.1-0.4,2-1.6,2-2.7v-36
		C427.8,22.1,426.9,21.5,425.8,21.9z"/>
	<polyline class="st3" points="400.4,51.2 405.2,54.2 414.8,41.2 	"/>
	<text transform="matrix(1 -0.364 0 1 166.9927 140.9238)" class="st15 st10 st11">Field</text>
	<g class="st5">
		<g>
			<path class="st6" d="M234.3,730.7c-1.1,0-1.8-0.8-1.8-1.9v-86c0-1.3,1-2.7,2.3-3.2l269.2-98c0.3-0.1,0.6-0.2,0.9-0.2
				c1.1,0,1.8,0.8,1.8,1.9v86c0,1.3-1,2.7-2.3,3.2l-269.2,98C234.9,730.6,234.6,730.7,234.3,730.7z"/>
			<path class="st7" d="M504.8,542c0.8,0,1.3,0.5,1.3,1.4v86c0,1.1-0.9,2.3-2,2.7l-269.2,98c-0.2,0.1-0.5,0.1-0.7,0.1
				c-0.8,0-1.3-0.5-1.3-1.4v-86c0-1.1,0.9-2.3,2-2.7l269.2-98C504.4,542,504.6,542,504.8,542 M504.8,541c-0.3,0-0.7,0.1-1,0.2
				l-269.2,98c-1.5,0.5-2.7,2.2-2.7,3.7v86c0,1.4,1,2.4,2.3,2.4c0.3,0,0.7-0.1,1-0.2l269.2-98c1.5-0.5,2.7-2.2,2.7-3.7v-86
				C507.1,542,506.2,541,504.8,541L504.8,541z"/>
		</g>
		<text transform="matrix(1 -0.364 0 1 245.292 659.8457)" class="st9 st10 st11">Text Field</text>
	</g>
	<g class="st5">
		<g>
			<path class="st6" d="M117.6,580.8c-1.1,0-1.8-0.8-1.8-1.9v-36c0-1.3,1-2.7,2.3-3.2l213.3-77.6c0.3-0.1,0.6-0.2,0.9-0.2
				c1.1,0,1.8,0.8,1.8,1.9v36c0,1.3-1,2.7-2.3,3.2l-213.3,77.6C118.2,580.8,117.9,580.8,117.6,580.8z"/>
			<path class="st7" d="M332.3,462.5c0.8,0,1.3,0.5,1.3,1.4v36c0,1.1-0.9,2.3-2,2.7l-213.3,77.6c-0.2,0.1-0.5,0.1-0.7,0.1
				c-0.8,0-1.3-0.5-1.3-1.4v-36c0-1.1,0.9-2.3,2-2.7l213.3-77.6C331.8,462.5,332.1,462.5,332.3,462.5 M332.3,461.5
				c-0.3,0-0.7,0.1-1,0.2L118,539.3c-1.5,0.5-2.7,2.2-2.7,3.7v36c0,1.4,1,2.4,2.3,2.4c0.3,0,0.7-0.1,1-0.2l213.3-77.6
				c1.5-0.5,2.7-2.2,2.7-3.7v-36C334.6,462.5,333.6,461.5,332.3,461.5L332.3,461.5z"/>
		</g>
		<path class="st16" d="M387.5,442.3l-35.8,13c-1.1,0.4-2,1.6-2,2.7v10.9v0.1v0.1c0,0.4-0.2,0.8-0.4,1.1c0,0,0,0,0,0.1
			c-0.1,0.1-0.2,0.2-0.2,0.3l-6.2,7c-0.1,0.1-0.2,0.2-0.2,0.3c-0.2,0.3-0.3,0.6-0.3,1s0.1,0.6,0.3,0.7c0.1,0,0.1,0.1,0.2,0.1
			l6.2,2.4c0.1,0,0.2,0,0.2,0.1l0,0c0.3,0.2,0.4,0.4,0.4,0.8v0.1v0.1V494c0,1.1,0.9,1.7,2,1.3l35.8-13c1.1-0.4,2-1.6,2-2.7v-36
			C389.5,442.4,388.6,441.8,387.5,442.3z"/>
		<text transform="matrix(1 -0.364 0 1 128.618 561.2379)" class="st9 st10 st11">Field</text>
		<g>
			<line class="st17" x1="363.9" y1="465.5" x2="374.5" y2="472.3"/>
			<line class="st17" x1="374.5" y1="461.7" x2="363.9" y2="476.1"/>
		</g>
	</g>
	<g class="st5">
		<g>
			<path class="st6" d="M116.8,651.5c-1.1,0-1.8-0.8-1.8-1.9v-36c0-1.3,1-2.7,2.3-3.2l269.2-98c0.3-0.1,0.6-0.2,0.9-0.2
				c1.1,0,1.8,0.8,1.8,1.9v36c0,1.3-1,2.7-2.3,3.2l-269.2,98C117.3,651.4,117,651.5,116.8,651.5z"/>
			<path class="st7" d="M387.3,512.7c0.8,0,1.3,0.5,1.3,1.4v36c0,1.1-0.9,2.3-2,2.7l-269.2,98c-0.2,0.1-0.5,0.1-0.7,0.1
				c-0.8,0-1.3-0.5-1.3-1.4v-36c0-1.1,0.9-2.3,2-2.7l269.2-98C386.8,512.8,387.1,512.7,387.3,512.7 M387.3,511.7
				c-0.3,0-0.7,0.1-1,0.2l-269.2,98c-1.5,0.5-2.7,2.2-2.7,3.7v36c0,1.4,1,2.4,2.3,2.4c0.3,0,0.7-0.1,1-0.2l269.2-98
				c1.5-0.5,2.7-2.2,2.7-3.7v-36C389.6,512.8,388.6,511.7,387.3,511.7L387.3,511.7z"/>
		</g>
		<text transform="matrix(1 -0.364 0 1 127.7645 631.2244)" class="st9 st10 st11">Dropdown</text>
		<g>
			<g>
				<path class="st18" d="M348.1,526.4l38.3-14c0.3-0.1,0.6-0.2,0.9-0.2c1.1,0,1.8,0.8,1.8,1.9v36c0,1.3-1,2.7-2.3,3.2l-38.7,14.1
					L348.1,526.4L348.1,526.4z"/>
				<path class="st19" d="M387.3,512.7c0.8,0,1.3,0.5,1.3,1.4v36c0,1.1-0.9,2.3-2,2.7l-38,13.8v-40l38-13.8
					C386.8,512.8,387.1,512.7,387.3,512.7 M387.3,511.7c-0.3,0-0.7,0.1-1,0.2l-38,13.8l-0.7,0.2v0.7v40v1.4l1.3-0.5l38-13.8
					c1.5-0.5,2.7-2.2,2.7-3.7v-36C389.6,512.8,388.6,511.7,387.3,511.7L387.3,511.7z"/>
			</g>
		</g>
		<polyline class="st20" points="362.1,539.7 368.4,543.6 374.6,535.1 		"/>
	</g>
	<g class="st5">
		<g>
			<g>
				<defs>
					<polygon id="SVGID_1_" points="1007.5,607 531.8,780.2 531.8,532.8 1007.5,359.7 					"/>
				</defs>
				<clipPath id="SVGID_2_">
					<use xlink:href="#SVGID_1_"  style="overflow:visible;"/>
				</clipPath>
				<g class="st21">
					<polygon class="st22" points="1007.5,607 531.8,780.2 531.8,532.8 1007.5,359.7 					"/>
					<polyline class="st23" points="1008.1,437.2 991.7,454.1 959.7,428.2 924.1,473.9 907.4,470.5 877,523.3 851.1,470.8 
						825.5,506 763.1,546.2 744.2,576.5 727.9,556 714.9,591 698.3,591.5 688.2,623 649.1,643.2 633.4,659.9 606.1,662.9 
						570.8,702.8 531.5,721.3 					"/>
					<polyline class="st20" points="531.5,643.7 539.6,652.2 547,643.8 559.9,646.8 571.3,634.1 578.2,644.5 588.9,649.9 
						588.9,658.4 613.2,649.6 625.1,634.3 627.5,624.3 640.1,620 658.3,620 676.9,630.9 684.7,644.9 706.2,648 708.9,631.2 
						723.3,618.8 738.6,615.7 748.3,605.4 754.4,617.1 780.1,636.8 797.5,617.3 810.6,627.6 816.6,599.6 837,611.1 848,593.1 
						878.5,569.1 886,545.3 895,554.1 900.7,536.5 907.9,539.8 913,527.9 932.4,515 939.6,506.1 944.1,530 967.1,517.7 989.5,493.1 
						1008.1,466.1 					"/>
					<g>
						<text transform="matrix(1 -0.364 0 1 545.5209 557.411)" class="st9 st10 st24">432.61</text>
					</g>
					<g>
						<text transform="matrix(1 -0.364 0 1 545.4457 572.6298)" class="st19 st10 st25">12.156</text>
					</g>
					<g>
						<g>
							<line class="st26" x1="532.1" y1="616.7" x2="534" y2="616"/>
							<line class="st27" x1="539.6" y1="614" x2="1003.4" y2="445.2"/>
							<line class="st26" x1="1006.2" y1="444.1" x2="1008.1" y2="443.5"/>
						</g>
					</g>
				</g>
			</g>
		</g>
		<polygon class="st28" points="1007.5,607 531.8,780.2 531.8,532.8 1007.5,359.7 		"/>
	</g>
	<g class="st5">
		<g>
			<polygon class="st29" points="1503,426.1 1027.3,599.2 1027.3,353.9 1503,180.8 			"/>
			<polygon class="st19" points="1071.4,536.1 1046.2,545.3 1046.2,501.4 1071.4,492.2 			"/>
			<polygon class="st19" points="1108.7,522.6 1083.6,531.7 1083.6,426.9 1108.7,417.8 			"/>
			<polygon class="st19" points="1146.1,509 1120.9,518.1 1120.9,440.9 1146.1,431.7 			"/>
			<polygon class="st19" points="1183.4,495.4 1158.2,504.5 1158.2,442.2 1183.4,433.1 			"/>
			<polygon class="st19" points="1220.7,481.8 1195.6,490.9 1195.6,368.7 1220.7,359.6 			"/>
			<polygon class="st19" points="1258.1,468.2 1232.9,477.3 1232.9,452.8 1258.1,443.6 			"/>
			<polygon class="st19" points="1295.4,454.6 1270.3,463.8 1270.3,401.5 1295.4,392.3 			"/>
			<polygon class="st19" points="1332.8,441 1307.6,450.2 1307.6,361.8 1332.8,352.6 			"/>
			<polygon class="st19" points="1370.1,427.4 1344.9,436.6 1344.9,359.3 1370.1,350.2 			"/>
			<polygon class="st19" points="1407.4,413.8 1382.3,423 1382.3,330.8 1407.4,321.6 			"/>
			<polygon class="st19" points="1444.8,400.2 1419.6,409.4 1419.6,304.6 1444.8,295.4 			"/>
			<polygon class="st19" points="1482.1,386.7 1456.9,395.8 1456.9,339.3 1482.1,330.2 			"/>
			<g>
				<text transform="matrix(1 -0.364 0 1 1049.5098 390.2384)" class="st9 st10 st24">+7516.78</text>
			</g>
			<g>
				<text transform="matrix(1 -0.364 0 1 1049.5098 406.4308)" class="st19 st10 st30">ANNUAL INCREASE</text>
			</g>
			<g>
				<text transform="matrix(1 -0.364 0 1 1055.0863 558.8647)" class="st9 st10 st30">J</text>
			</g>
			<g>
				<text transform="matrix(1 -0.364 0 1 1093.2711 544.9675)" class="st9 st10 st30">F</text>
			</g>
			<g>
				<text transform="matrix(1 -0.364 0 1 1129.124 531.917)" class="st9 st10 st30">M</text>
			</g>
			<g>
				<text transform="matrix(1 -0.364 0 1 1167.5768 517.9212)" class="st9 st10 st30">A</text>
			</g>
			<g>
				<text transform="matrix(1 -0.364 0 1 1203.8004 504.7377)" class="st9 st10 st30">M</text>
			</g>
			<g>
				<text transform="matrix(1 -0.364 0 1 1242.8992 490.5067)" class="st9 st10 st30">J</text>
			</g>
			<g>
				<text transform="matrix(1 -0.364 0 1 1280.2379 476.9164)" class="st9 st10 st30">J</text>
			</g>
			<g>
				<text transform="matrix(1 -0.364 0 1 1316.9305 463.5613)" class="st9 st10 st30">A</text>
			</g>
			<g>
				<text transform="matrix(1 -0.364 0 1 1354.2692 449.972)" class="st9 st10 st30">S</text>
			</g>
			<g>
				<text transform="matrix(1 -0.364 0 1 1391.0471 436.5848)" class="st9 st10 st30">O</text>
			</g>
			<g>
				<text transform="matrix(1 -0.364 0 1 1428.5757 422.9264)" class="st9 st10 st30">N</text>
			</g>
			<g>
				<text transform="matrix(1 -0.364 0 1 1466.0043 409.3033)" class="st9 st10 st30">D</text>
			</g>
		</g>
		<polygon class="st28" points="1503,427.1 1027.3,600.3 1027.3,352.9 1503,179.8 		"/>
	</g>
	<g class="st5">
		<g>
			<g>
				<path class="st31" d="M807.3,263.4c-27.9,10.2-50.6-4.3-50.6-32.2s22.7-58.9,50.6-69.1c27.9-10.2,50.6,4.3,50.6,32.2
					S835.2,253.2,807.3,263.4z M807.3,182.1c-16.9,6.2-30.6,24.9-30.6,41.8s13.7,25.6,30.6,19.5c16.9-6.1,30.6-24.9,30.6-41.8
					C837.9,184.7,824.2,175.9,807.3,182.1z"/>
			</g>
			<path class="st32" d="M855.5,179.7l-19,13.1c1,2.6,1.5,5.6,1.5,8.9c0,16.9-13.7,35.6-30.6,41.8c-16.9,6.2-30.6-2.6-30.6-19.5
				s13.7-35.6,30.6-41.8v-20c-27.9,10.2-50.6,41.2-50.6,69.1s22.7,42.4,50.6,32.2c27.9-10.2,50.6-41.2,50.6-69.1
				C857.9,188.9,857.1,184,855.5,179.7z"/>
		</g>
		<g>
			<text transform="matrix(1 -0.364 0 1 885.3395 183.2952)" class="st9 st10 st24">78.4%</text>
		</g>
		<g>
			<text transform="matrix(1 -0.364 0 1 885.3395 199.4866)" class="st19 st10 st30">ANNUALLY</text>
		</g>
	</g>
	<g class="st5">
		<g>
			<g>
				<path class="st31" d="M808.1,129.1c-27.9,10.2-50.6-4.3-50.6-32.2s22.7-58.9,50.6-69.1c27.9-10.2,50.6,4.3,50.6,32.2
					C858.7,87.9,836,118.9,808.1,129.1z M808.1,47.8c-16.9,6.2-30.6,24.9-30.6,41.8s13.7,25.6,30.6,19.5
					c16.9-6.1,30.6-24.9,30.6-41.8C838.7,50.4,825,41.6,808.1,47.8z"/>
			</g>
			<path class="st32" d="M777.4,89.6c0-16.9,13.7-35.6,30.6-41.8v-20C780.1,38,757.4,69,757.4,96.9c0,16.4,7.8,28.1,20,33l12.1-20.3
				C782.2,106.6,777.4,99.5,777.4,89.6z"/>
		</g>
		<g>
			<text transform="matrix(1 -0.364 0 1 886.137 49.8223)" class="st9 st10 st24">43.8%</text>
		</g>
		<g>
			<text transform="matrix(1 -0.364 0 1 886.137 66.0147)" class="st19 st10 st30">MONTHLY</text>
		</g>
	</g>
	<g class="st5">
		<g>
			<g>
				<path class="st31" d="M250.5,241.9c-27.9,10.2-50.6-4.3-50.6-32.2s22.7-58.9,50.6-69.1c27.9-10.2,50.6,4.3,50.6,32.2
					S278.4,231.7,250.5,241.9z M250.5,160.6c-16.9,6.2-30.6,24.9-30.6,41.8s13.7,25.6,30.6,19.5s30.6-24.9,30.6-41.8
					S267.4,154.5,250.5,160.6z"/>
			</g>
			<path class="st32" d="M250.5,221.9c-16.9,6.2-30.6-2.6-30.6-19.5s13.7-35.6,30.6-41.8v-20c-27.9,10.2-50.6,41.2-50.6,69.1
				s22.7,42.4,50.6,32.2c16.7-6.1,31.5-19.6,40.8-35.5l-16.1-6C269.6,210,260.6,218.2,250.5,221.9z"/>
		</g>
		<g>
			<text transform="matrix(1 -0.364 0 1 328.543 161.5961)" class="st9 st10 st24">59.7%</text>
		</g>
		<g>
			<text transform="matrix(1 -0.364 0 1 328.543 177.7894)" class="st19 st10 st30">WEEKLY</text>
		</g>
	</g>
	<g class="st5">
		<line class="st13" x1="419.8" y1="371.6" x2="722.5" y2="261.4"/>
		<g>
			<text transform="matrix(1 -0.364 0 1 558.3406 305.1636)" class="st32 st10 st33">Title</text>
		</g>
		<g>
			<line class="st34" x1="430.8" y1="341" x2="444.8" y2="336"/>
			<line class="st34" x1="430.8" y1="347" x2="444.8" y2="342"/>
			<line class="st34" x1="430.8" y1="353" x2="444.8" y2="348"/>
		</g>
		<g>
			<polygon class="st6" points="419.3,371.2 723,260.7 723,432 419.3,542.6 			"/>
			<path class="st7" d="M722.5,261.4v170.3L419.8,541.9V371.6L722.5,261.4 M723.5,260l-1.3,0.5L419.4,370.7l-0.7,0.2v0.7v170.3v1.4
				l1.3-0.5l302.7-110.2l0.7-0.2v-0.7V261.4V260H723.5z"/>
		</g>
		<text transform="matrix(1 -0.364 0 1 429.7746 528.2468)" class="st19 st10 st35">00:45</text>
		<text transform="matrix(1 -0.364 0 1 669.5389 440.9794)" class="st19 st10 st35">02:34</text>
		<g>
			<g>
				<path class="st19" d="M700.9,420.6L700.9,420.6v0.6v2.6v0.1c0,0.1,0.1,0.2,0.1,0.2c0.2,0.1,0.4,0,0.6-0.2l0.8-1.1
					c0.2-0.2,0.4-0.3,0.6-0.2l1.5,1l0.2,0.1c0.3,0.2,0.8,0.1,1.2-0.4c0.3-0.5,0.3-0.9-0.1-1.1l-0.2-0.1l-1.5-1
					c-0.2-0.1-0.2-0.4,0-0.6l0.8-1.1c0.2-0.2,0.2-0.5,0-0.6c-0.1-0.1-0.2-0.1-0.3,0l0,0l-2.6,0.9l-0.5,0.2h-0.1
					c-0.2,0.1-0.3,0.2-0.4,0.3C701,420.3,700.9,420.4,700.9,420.6z"/>
				<path class="st19" d="M713.1,427.2L713.1,427.2v-0.6V424v-0.1c0-0.1-0.1-0.2-0.1-0.2c-0.2-0.1-0.4,0-0.6,0.2l-0.8,1.1
					c-0.2,0.2-0.4,0.3-0.6,0.2l-1.5-1l-0.2-0.1c-0.3-0.2-0.8-0.1-1.2,0.4c-0.3,0.5-0.3,0.9,0.1,1.1l0.2,0.1l1.5,1
					c0.2,0.1,0.2,0.4,0,0.6l-0.8,1.1c-0.2,0.2-0.2,0.5,0,0.6c0.1,0.1,0.2,0.1,0.3,0l0,0l2.6-0.9l0.5-0.2h0.1
					c0.2-0.1,0.3-0.2,0.4-0.3C713,427.5,713.1,427.3,713.1,427.2z"/>
			</g>
		</g>
		<line class="st36" x1="461.4" y1="513.4" x2="660.9" y2="440.8"/>
		<line class="st37" x1="461.4" y1="513.4" x2="512.2" y2="494.9"/>
		<path class="st22" d="M520.4,491.9c0,4.6-3.7,9.6-8.2,11.3c-4.6,1.7-8.2-0.7-8.2-5.2c0-4.6,3.7-9.6,8.2-11.3
			S520.4,487.4,520.4,491.9z"/>
		<path class="st6" d="M515.6,493.7c0,1.9-1.5,4-3.5,4.7c-1.9,0.7-3.5-0.3-3.5-2.2c0-1.9,1.5-4,3.5-4.7S515.6,491.8,515.6,493.7z"/>
		<path class="st31" d="M591.9,394.1c0,11.4-9.3,24.1-20.7,28.3c-11.4,4.2-20.7-1.7-20.7-13.2c0-11.4,9.3-24.1,20.7-28.3
			C582.6,376.8,591.9,382.7,591.9,394.1z"/>
		<path class="st6" d="M579.3,397.7l-12.1-2.7c-0.1,0-0.3,0-0.5,0c-0.5,0.2-0.9,0.7-0.9,1.2l0,0v2v0.6v0.1v9.3v0.1v1.2v1.4l0,0
			c0,0.5,0.4,0.7,0.9,0.5c0.2-0.1,0.3-0.2,0.5-0.3l12.1-11.5c0.3-0.3,0.5-0.8,0.5-1.2C579.8,398.1,579.6,397.8,579.3,397.7z"/>
		<path class="st9" d="M706.6,240.8c-1.9-0.2-4.2,1.3-5.3,3.5l0,0l0,0l0,0c-0.1,0.1-0.2,0.3-0.3,0.3c-0.1,0.1-0.3,0-0.3-0.1l0,0l0,0
			l0,0c-1.1-1.4-3.3-1.3-5.3,0.3c-2,1.7-2.9,4.5-2,6.2c0.8,1.3,5.1,3.8,6.8,4.7l0,0c0.2,0.1,0.5,0.1,0.8,0s0.6-0.3,0.8-0.6l0,0
			c1.8-2.3,6.1-7.8,6.8-9.7C709.5,243.1,708.7,241,706.6,240.8z"/>
		<text transform="matrix(1 -0.364 0 1 677.3959 261.4808)" class="st19 st10 st30">24</text>
	</g>
	<path class="st38" d="M1040.4,96.5l-24.5,8.9c-2.2,0.8-3.5,0.2-4-1.3l-1.5-3.1c-0.6-1.7-1.6-2.7-4.4-1.7l-25.5,9.3
		c-1.8,0.7-3.3,2.7-3.3,4.5v46.1c0,1.8,1.5,2.8,3.3,2.1l60-21.8c1.8-0.7,3.3-2.7,3.3-4.5V98.6C1043.7,96.8,1042.2,95.8,1040.4,96.5z
		"/>
	<text transform="matrix(1 -0.364 0 1 993.3793 178.6562)" class="st39 st10 st25">Folder</text>
	<path class="st38" d="M1137,61.3l-24.5,8.9c-2.2,0.8-3.5,0.2-4-1.3l-1.5-3.1c-0.6-1.7-1.6-2.7-4.4-1.7l-25.5,9.3
		c-1.8,0.7-3.3,2.7-3.3,4.5V124c0,1.8,1.5,2.8,3.3,2.1l60-21.8c1.8-0.7,3.3-2.7,3.3-4.5V63.5C1140.3,61.6,1138.8,60.7,1137,61.3z"/>
	<text transform="matrix(1 -0.364 0 1 1089.9905 143.4927)" class="st39 st10 st25">Folder</text>
	<g class="st5">
		<path class="st40" d="M1040.4,190.8l-59.6,21.7c-1.8,0.7-3.3,2.7-3.3,4.5v44.9c0,1.8,1.5,2.8,3.3,2.1l59.6-21.7
			c1.8-0.7,3.3-2.7,3.3-4.5v-44.9C1043.7,191,1042.2,190.1,1040.4,190.8z"/>
		<path class="st7" d="M1026.3,229.9l-8.8-7.5c-0.3-0.3-0.7-0.3-1.3-0.1c-0.5,0.2-1,0.6-1.2,1l-1.2,1.9c0,0.1-0.1,0.2-0.2,0.2
			c-0.3,0.4-0.7,0.7-1.1,0.9c-0.4,0.2-0.8,0.1-1.1,0c-0.1-0.1-0.2-0.1-0.2-0.2l-4.3-3.7c-0.4-0.3-1-0.4-1.6-0.2
			c-0.7,0.2-1.2,0.8-1.6,1.4L992,241.8l-0.2,0.3c-0.1,0.3-0.2,0.6-0.2,0.9c0,0.8,0.6,1.2,1.4,0.9l0,0l3.2-1.2l1.1-0.4l0.2-0.1
			l9.4-3.4l2.5-0.9l0.8-0.3l0.2-0.1l7-2.6l4.6-1.7l0.2-0.1l1.5-0.6l1.8-0.6l0,0c0.6-0.2,1.1-0.9,1.1-1.5
			C1026.6,230.2,1026.5,230,1026.3,229.9L1026.3,229.9z"/>
		<path class="st7" d="M1023.8,211c-1.9,0.7-3.5,2.9-3.5,4.8c0,1.9,1.6,3,3.5,2.2c2-0.7,3.5-2.9,3.5-4.8
			C1027.3,211.2,1025.7,210.2,1023.8,211z"/>
	</g>
	<text transform="matrix(1 -0.364 0 1 980.9835 285.848)" class="st39 st10 st25">Image.jpeg</text>
	<g class="st5">
		<path class="st40" d="M1136.6,155.7l-59.6,21.7c-1.8,0.7-3.3,2.7-3.3,4.5v44.9c0,1.8,1.5,2.8,3.3,2.1l59.6-21.7
			c1.8-0.7,3.3-2.7,3.3-4.5v-44.9C1139.9,156,1138.4,155.1,1136.6,155.7z"/>
		<path class="st7" d="M1122.5,194.9l-8.8-7.5c-0.3-0.3-0.7-0.3-1.3-0.1c-0.5,0.2-1,0.6-1.2,1l-1.2,1.9c0,0.1-0.1,0.2-0.2,0.2
			c-0.3,0.4-0.7,0.7-1.1,0.9s-0.8,0.1-1.1,0c-0.1-0.1-0.2-0.1-0.2-0.2l-4.3-3.7c-0.4-0.3-1-0.4-1.6-0.2s-1.2,0.8-1.6,1.4l-11.6,18.2
			l-0.2,0.3c-0.1,0.3-0.2,0.6-0.2,0.9c0,0.8,0.6,1.2,1.4,0.9l0,0l3.2-1.2l1.1-0.4l0.2-0.1l9.4-3.4l2.5-0.9l0.8-0.3l0.2-0.1l7-2.6
			l4.6-1.7l0.2-0.1l1.5-0.6l1.8-0.6l0,0c0.6-0.2,1.1-0.9,1.1-1.5c0-0.2-0.1-0.4-0.2-0.5L1122.5,194.9z"/>
		<path class="st7" d="M1120,175.9c-1.9,0.7-3.5,2.9-3.5,4.8c0,1.9,1.6,3,3.5,2.2c2-0.7,3.5-2.9,3.5-4.8
			C1123.5,176.2,1121.9,175.2,1120,175.9z"/>
	</g>
	<text transform="matrix(1 -0.364 0 1 1077.2057 250.8251)" class="st39 st10 st25">Image.jpeg</text>
	<g class="st5">
		<path class="st40" d="M1232.8,120.7l-59.6,21.7c-1.8,0.7-3.3,2.7-3.3,4.5v44.9c0,1.8,1.5,2.8,3.3,2.1l59.6-21.7
			c1.8-0.7,3.3-2.7,3.3-4.5v-44.9C1236.1,121,1234.7,120.1,1232.8,120.7z"/>
		<path class="st7" d="M1218.7,159.9l-8.8-7.5c-0.3-0.3-0.7-0.3-1.3-0.1c-0.5,0.2-1,0.6-1.2,1l-1.2,1.9c0,0.1-0.1,0.2-0.2,0.2
			c-0.3,0.4-0.7,0.7-1.1,0.9s-0.8,0.1-1.1,0c-0.1-0.1-0.2-0.1-0.2-0.2l-4.3-3.7c-0.4-0.3-1-0.4-1.6-0.2c-0.7,0.2-1.2,0.8-1.6,1.4
			l-11.6,18.2l-0.2,0.3c-0.1,0.3-0.2,0.6-0.2,0.9c0,0.8,0.6,1.2,1.4,0.9l0,0l3.2-1.2l1.1-0.4l0.2-0.1l9.4-3.4l2.5-0.9l0.8-0.3
			l0.2-0.1l7-2.6l4.6-1.7l0.2-0.1l1.5-0.6l1.8-0.6l0,0c0.6-0.2,1.1-0.9,1.1-1.5c0-0.2-0.1-0.4-0.2-0.5L1218.7,159.9z"/>
		<path class="st7" d="M1216.2,140.9c-1.9,0.7-3.5,2.9-3.5,4.8c0,1.9,1.6,3,3.5,2.2c2-0.7,3.5-2.9,3.5-4.8
			C1219.7,141.2,1218.2,140.2,1216.2,140.9z"/>
	</g>
	<text transform="matrix(1 -0.364 0 1 1173.4296 215.8035)" class="st39 st10 st25">Image.jpeg</text>
	<g class="st5">
		<path class="st40" d="M1232.8,18l-59.6,21.7c-1.8,0.7-3.3,2.7-3.3,4.5v44.9c0,1.8,1.5,2.8,3.3,2.1l59.6-21.7
			c1.8-0.7,3.3-2.7,3.3-4.5V20.1C1236.1,18.3,1234.7,17.4,1232.8,18z"/>
		<path class="st7" d="M1218.7,57.2l-8.8-7.5c-0.3-0.3-0.7-0.3-1.3-0.1c-0.5,0.2-1,0.6-1.2,1l-1.2,1.9c0,0.1-0.1,0.2-0.2,0.2
			c-0.3,0.4-0.7,0.7-1.1,0.9s-0.8,0.1-1.1,0c-0.1-0.1-0.2-0.1-0.2-0.2l-4.3-3.7c-0.4-0.3-1-0.4-1.6-0.2c-0.7,0.2-1.2,0.8-1.6,1.4
			l-11.6,18.2l-0.2,0.3c-0.1,0.3-0.2,0.6-0.2,0.9c0,0.8,0.6,1.2,1.4,0.9l0,0l3.2-1.2l1.1-0.4l0.2-0.1l9.4-3.4l2.5-0.9l0.8-0.3
			l0.2-0.1l7-2.6l4.6-1.7l0.2-0.1l1.5-0.6l1.8-0.6l0,0c0.6-0.2,1.1-0.9,1.1-1.5c0-0.2-0.1-0.4-0.2-0.5L1218.7,57.2z"/>
		<path class="st7" d="M1216.2,38.2c-1.9,0.7-3.5,2.9-3.5,4.8c0,1.9,1.6,3,3.5,2.2c2-0.7,3.5-2.9,3.5-4.8
			C1219.7,38.5,1218.2,37.5,1216.2,38.2z"/>
	</g>
	<text transform="matrix(1 -0.364 0 1 1173.4296 113.1238)" class="st39 st10 st25">Image.jpeg</text>
	<polygon class="st41" points="724.2,201.9 421.5,312.1 421.5,168.1 724.2,57.9 	"/>
	<path class="st2" d="M470.4,199.8c-0.1,0-0.3,0-0.4,0l0,0c-2-0.1-4.7-0.7-4.7-2.9c0-3.3,3.9-5.3,4.4-12.4c0.4-5.7-2.6-8.6-8.2-6.6
		s-8.6,7.2-8.2,12.6c0.5,6.8,4.4,5.9,4.4,9.2c0,2.2-2.7,4.7-4.7,6.2l0,0c-0.1,0.1-0.3,0.2-0.4,0.3c-1.1,0.9-1.9,2.3-1.9,3.6
		c0,1.8,1.5,2.7,3.3,2.1l7.4-2.7l7.4-2.7c1.8-0.7,3.3-2.7,3.3-4.5C472.3,200.8,471.5,199.9,470.4,199.8z"/>
	<line class="st42" x1="421.5" y1="168.1" x2="724.2" y2="57.9"/>
	<text transform="matrix(1 -0.364 0 1 501.5613 165.7004)" class="st43 st10 st44">Chris Wan</text>
	<text transform="matrix(1 -0.364 0 1 501.5613 180.3664)" class="st15 st10 st45">chriswan.me</text>
	<polygon class="st46" points="502.6,199.8 698.6,128.4 698.6,159.9 502.6,231.2 	"/>
	<text transform="matrix(1 -0.364 0 1 502.5616 209.2201)" class="st15 st10 st45">Hire me.</text>
	<line class="st42" x1="491.6" y1="192.6" x2="724.2" y2="107.9"/>
	<path class="st47" d="M491.6,209.6c0,1.7-1.3,3.5-3,4.1l-54,19.7c-1.7,0.6-3-0.3-3-1.9v-54c0-1.7,1.3-3.5,3-4.1l54-19.7
		c1.7-0.6,3,0.3,3,1.9V209.6z"/>
	<path class="st38" d="M567.9,247.1c0,1.1-0.9,2.3-2,2.7L433.5,298c-1.1,0.4-2-0.2-2-1.3v-32c0-1.1,0.9-2.3,2-2.7l132.4-48.2
		c1.1-0.4,2,0.2,2,1.3V247.1z"/>
	<path class="st38" d="M714.2,193.8c0,1.1-0.9,2.3-2,2.7l-132.4,48.2c-1.1,0.4-2-0.2-2-1.3v-32c0-1.1,0.9-2.3,2-2.7l132.4-48.2
		c1.1-0.4,2,0.2,2,1.3L714.2,193.8L714.2,193.8z"/>
	<g class="st5">
		<text transform="matrix(1 -0.364 0 1 473.28 269.8161)" class="st32 st10 st48">Message</text>
	</g>
	<g class="st5">
		<text transform="matrix(1 -0.364 0 1 620.5396 216.2185)" class="st32 st10 st48">Hire Him</text>
	</g>
	<g class="st5">
		<g>
			<g>
				<path class="st49" d="M159.9,407.5L142,414c-1.7,0.6-3,2.5-3,4.1V448c0,1.7,1.4,2.5,3,1.9l17.9-6.5c1.7-0.6,3-2.5,3-4.1v-29.9
					C162.9,407.7,161.6,406.8,159.9,407.5z"/>
				<path class="st49" d="M190.2,396.4l-17.9,6.5c-1.7,0.6-3,2.5-3,4.1v30c0,1.7,1.4,2.5,3,1.9l17.9-6.5c1.7-0.6,3-2.5,3-4.1v-29.9
					C193.2,396.7,191.8,395.8,190.2,396.4z"/>
				<path class="st49" d="M220.4,385.4l-17.9,6.5c-1.7,0.6-3,2.5-3,4.1v30c0,1.7,1.4,2.5,3,1.9l17.9-6.5c1.7-0.6,3-2.5,3-4.1v-29.9
					C223.4,385.7,222.1,384.8,220.4,385.4z"/>
				<path class="st49" d="M250.7,374.4l-17.9,6.5c-1.7,0.6-3,2.5-3,4.1v30c0,1.7,1.4,2.5,3,1.9l17.9-6.5c1.7-0.6,3-2.5,3-4.1v-29.9
					C253.7,374.7,252.3,373.8,250.7,374.4z"/>
				<path class="st49" d="M280.9,363.4l-17.9,6.5c-1.7,0.6-3,2.5-3,4.1v30c0,1.7,1.4,2.5,3,1.9l17.9-6.5c1.7-0.6,3-2.5,3-4.1v-29.9
					C283.9,363.7,282.6,362.8,280.9,363.4z"/>
				<path class="st49" d="M311.2,352.4l-17.9,6.5c-1.7,0.6-3,2.5-3,4.1v30c0,1.7,1.4,2.5,3,1.9l17.9-6.5c1.7-0.6,3-2.5,3-4.1v-29.9
					C314.2,352.7,312.8,351.8,311.2,352.4z"/>
				<path class="st49" d="M341.4,341.4l-17.9,6.5c-1.7,0.6-3,2.5-3,4.1v30c0,1.7,1.4,2.5,3,1.9l17.9-6.5c1.7-0.6,3-2.5,3-4.1v-29.9
					C344.4,341.6,343.1,340.8,341.4,341.4z"/>
			</g>
			<g>
				<path class="st49" d="M129.9,366.9l-17.9,6.5c-1.7,0.6-3,2.5-3,4.1v29.9c0,1.7,1.4,2.5,3,1.9l17.9-6.5c1.7-0.6,3-2.5,3-4.1
					v-29.9C132.9,367.1,131.6,366.3,129.9,366.9z"/>
				<path class="st49" d="M160.2,355.9l-17.9,6.5c-1.7,0.6-3,2.5-3,4.1v29.9c0,1.7,1.4,2.5,3,1.9l17.9-6.5c1.7-0.6,3-2.5,3-4.1
					v-29.9C163.2,356.1,161.8,355.3,160.2,355.9z"/>
				<path class="st49" d="M190.4,344.9l-17.9,6.5c-1.7,0.6-3,2.5-3,4.1v29.9c0,1.7,1.4,2.5,3,1.9l17.9-6.5c1.7-0.6,3-2.5,3-4.1
					v-29.9C193.4,345.1,192.1,344.2,190.4,344.9z"/>
				<path class="st49" d="M220.7,333.8l-17.9,6.5c-1.7,0.6-3,2.5-3,4.1v29.9c0,1.7,1.4,2.5,3,1.9l17.9-6.5c1.7-0.6,3-2.5,3-4.1
					v-29.9C223.7,334.1,222.3,333.2,220.7,333.8z"/>
				<path class="st49" d="M250.9,322.8l-17.9,6.5c-1.7,0.6-3,2.5-3,4.1v29.9c0,1.7,1.4,2.5,3,1.9l17.9-6.5c1.7-0.6,3-2.5,3-4.1
					v-29.9C253.9,323.1,252.6,322.2,250.9,322.8z"/>
				<path class="st49" d="M281.1,311.8l-17.9,6.5c-1.7,0.6-3,2.5-3,4.1v29.9c0,1.7,1.4,2.5,3,1.9l17.9-6.5c1.7-0.6,3-2.5,3-4.1
					v-29.9C284.2,312.1,282.8,311.2,281.1,311.8z"/>
				<path class="st49" d="M311.4,300.8l-17.9,6.5c-1.7,0.6-3,2.5-3,4.1v29.9c0,1.7,1.4,2.5,3,1.9l17.9-6.5c1.7-0.6,3-2.5,3-4.1
					v-29.9C314.4,301.1,313.1,300.2,311.4,300.8z"/>
				<path class="st49" d="M341.6,289.8l-17.9,6.5c-1.7,0.6-3,2.5-3,4.1v29.9c0,1.7,1.4,2.5,3,1.9l17.9-6.5c1.7-0.6,3-2.5,3-4.1
					v-29.9C344.7,290.1,343.3,289.2,341.6,289.8z"/>
				<path class="st49" d="M371.9,278.8l-17.9,6.5c-1.7,0.6-3,2.5-3,4.1v29.9c0,1.7,1.4,2.5,3,1.9l17.9-6.5c1.7-0.6,3-2.5,3-4.1
					v-29.9C374.9,279.1,373.6,278.2,371.9,278.8z"/>
			</g>
			<g>
				<path class="st49" d="M114.8,321.5L96.9,328c-1.7,0.6-3,2.5-3,4.1V362c0,1.7,1.4,2.5,3,1.9l17.9-6.5c1.7-0.6,3-2.5,3-4.1v-29.9
					C117.9,321.7,116.5,320.9,114.8,321.5z"/>
				<path class="st49" d="M145.1,310.5l-17.9,6.5c-1.7,0.6-3,2.5-3,4.1V351c0,1.7,1.4,2.5,3,1.9l17.9-6.5c1.7-0.6,3-2.5,3-4.1v-29.9
					C148.1,310.7,146.8,309.9,145.1,310.5z"/>
				<path class="st49" d="M175.4,299.5l-17.9,6.5c-1.7,0.6-3,2.5-3,4.1V340c0,1.7,1.4,2.5,3,1.9l17.9-6.5c1.7-0.6,3-2.5,3-4.1v-29.9
					C178.4,299.7,177,298.8,175.4,299.5z"/>
				<path class="st49" d="M205.6,288.4l-17.9,6.5c-1.7,0.6-3,2.5-3,4.1v30c0,1.7,1.4,2.5,3,1.9l17.9-6.5c1.7-0.6,3-2.5,3-4.1v-29.9
					C208.7,288.7,207.3,287.8,205.6,288.4z"/>
				<path class="st49" d="M235.9,277.4l-17.9,6.5c-1.7,0.6-3,2.5-3,4.1v30c0,1.7,1.4,2.5,3,1.9l17.9-6.5c1.7-0.6,3-2.5,3-4.1v-29.9
					C238.9,277.7,237.6,276.8,235.9,277.4z"/>
				<path class="st49" d="M266.2,266.4l-17.9,6.5c-1.7,0.6-3,2.5-3,4.1v30c0,1.7,1.4,2.5,3,1.9l17.9-6.5c1.7-0.6,3-2.5,3-4.1v-29.9
					C269.2,266.7,267.8,265.8,266.2,266.4z"/>
				<path class="st49" d="M296.4,255.4l-17.9,6.5c-1.7,0.6-3,2.5-3,4.1v30c0,1.7,1.4,2.5,3,1.9l17.9-6.5c1.7-0.6,3-2.5,3-4.1v-29.9
					C299.5,255.6,298.1,254.8,296.4,255.4z"/>
				<path class="st49" d="M326.7,244.4l-17.9,6.5c-1.7,0.6-3,2.5-3,4.1v30c0,1.7,1.4,2.5,3,1.9l17.9-6.5c1.7-0.6,3-2.5,3-4.1v-29.9
					C329.7,244.6,328.4,243.8,326.7,244.4z"/>
				<path class="st49" d="M357,233.4l-17.9,6.5c-1.7,0.6-3,2.5-3,4.1v30c0,1.7,1.4,2.5,3,1.9l17.9-6.5c1.7-0.6,3-2.5,3-4.1v-29.9
					C360,233.6,358.6,232.7,357,233.4z"/>
				<path class="st49" d="M387.2,222.3l-17.9,6.5c-1.7,0.6-3,2.5-3,4.1v29.9c0,1.7,1.4,2.5,3,1.9l17.9-6.5c1.7-0.6,3-2.5,3-4.1
					v-29.9C390.3,222.6,388.9,221.7,387.2,222.3z"/>
			</g>
		</g>
		<path class="st49" d="M193.3,479.3c0,1.7-1.3,3.5-3,4.1l-18,6.6c-1.7,0.6-3-0.3-3-1.9v-30c0-1.7,1.3-3.5,3-4.1l18-6.6
			c1.7-0.6,3,0.3,3,1.9V479.3z"/>
		<path class="st50" d="M127.6,452.2c0,1.7-1.3,3.5-3,4.1l-28,10.2c-1.7,0.6-3-0.3-3-1.9v-30c0-1.7,1.3-3.5,3-4.1l28-10.2
			c1.7-0.6,3,0.3,3,1.9V452.2z"/>
		<path class="st50" d="M125.6,503.9c0,1.7-1.3,3.5-3,4.1l-26,9.5c-1.7,0.6-3-0.3-3-1.9v-30c0-1.7,1.3-3.5,3-4.1l26-9.5
			c1.7-0.6,3,0.3,3,1.9V503.9z"/>
		<path class="st50" d="M163.2,490.2c0,1.7-1.3,3.5-3,4.1l-26,9.5c-1.7,0.6-3-0.3-3-1.9v-30c0-1.7,1.3-3.5,3-4.1l26-9.5
			c1.7-0.6,3,0.3,3,1.9V490.2z"/>
		<path class="st49" d="M239.3,462.5c0,1.7-1.3,3.5-3,4.1l-34,12.4c-1.7,0.6-3-0.3-3-1.9v-30c0-1.7,1.3-3.5,3-4.1l34-12.4
			c1.7-0.6,3,0.3,3,1.9V462.5z"/>
		<path class="st49" d="M276.5,449c0,1.7-1.3,3.5-3,4.1l-26,9.5c-1.7,0.6-3-0.3-3-1.9v-30c0-1.7,1.3-3.5,3-4.1l26-9.5
			c1.7-0.6,3,0.3,3,1.9V449z"/>
		<path class="st49" d="M314.5,435.2c0,1.7-1.3,3.5-3,4.1l-26,9.5c-1.7,0.6-3-0.3-3-1.9v-30c0-1.7,1.3-3.5,3-4.1l26-9.5
			c1.7-0.6,3,0.3,3,1.9V435.2z"/>
		<path class="st50" d="M390.3,407.6c0,1.7-1.3,3.5-3,4.1l-64,23.3c-1.7,0.6-3-0.3-3-1.9v-30c0-1.7,1.3-3.5,3-4.1l64-23.3
			c1.7-0.6,3,0.3,3,1.9V407.6z"/>
		<path class="st50" d="M390.2,356.6c0,1.7-1.3,3.5-3,4.1l-28,10.2c-1.7,0.6-3-0.3-3-1.9v-30c0-1.7,1.3-3.5,3-4.1l28-10.2
			c1.7-0.6,3,0.3,3,1.9V356.6z"/>
		<g>
			<g>
				<text transform="matrix(1 -0.364 0 1 372.0153 253.1599)" class="st51 st10 st52">P</text>
			</g>
			<g>
				<text transform="matrix(1 -0.364 0 1 340.8112 264.5172)" class="st51 st10 st52">Q</text>
			</g>
			<g>
				<text transform="matrix(1 -0.364 0 1 314.4542 274.1101)" class="st51 st10 st52">I</text>
			</g>
			<g>
				<text transform="matrix(1 -0.364 0 1 280.308 286.5384)" class="st51 st10 st52">U</text>
			</g>
			<g>
				<text transform="matrix(1 -0.364 0 1 250.5144 297.3823)" class="st51 st10 st52">Y</text>
			</g>
			<g>
				<text transform="matrix(1 -0.364 0 1 221.2842 308.0211)" class="st51 st10 st52">T</text>
			</g>
			<g>
				<text transform="matrix(1 -0.364 0 1 189.7451 319.5013)" class="st51 st10 st52">R</text>
			</g>
			<g>
				<text transform="matrix(1 -0.364 0 1 159.7422 330.4204)" class="st51 st10 st52">E</text>
			</g>
			<g>
				<text transform="matrix(1 -0.364 0 1 127.4902 342.1602)" class="st51 st10 st52">W</text>
			</g>
			<g>
				<text transform="matrix(1 -0.364 0 1 98.8115 352.5982)" class="st51 st10 st52">Q</text>
			</g>
			<g>
				<text transform="matrix(1 -0.364 0 1 357.4832 310.095)" class="st51 st10 st52">L</text>
			</g>
			<g>
				<text transform="matrix(1 -0.364 0 1 326.3195 321.4386)" class="st51 st10 st52">K</text>
			</g>
			<g>
				<text transform="matrix(1 -0.364 0 1 297.3994 331.9645)" class="st51 st10 st52">J</text>
			</g>
			<g>
				<text transform="matrix(1 -0.364 0 1 265.1621 343.698)" class="st51 st10 st52">H</text>
			</g>
			<g>
				<text transform="matrix(1 -0.364 0 1 235.0803 354.6468)" class="st51 st10 st52">G</text>
			</g>
			<g>
				<text transform="matrix(1 -0.364 0 1 205.7427 365.3247)" class="st51 st10 st52">F</text>
			</g>
			<g>
				<text transform="matrix(1 -0.364 0 1 174.4037 376.7311)" class="st51 st10 st52">D</text>
			</g>
			<g>
				<text transform="matrix(1 -0.364 0 1 145.1615 387.3743)" class="st51 st10 st52">S</text>
			</g>
			<g>
				<text transform="matrix(1 -0.364 0 1 114.9118 398.3842)" class="st51 st10 st52">A</text>
			</g>
			<g>
				<text transform="matrix(1 -0.364 0 1 324.397 373.1794)" class="st51 st10 st52">M</text>
			</g>
			<g>
				<text transform="matrix(1 -0.364 0 1 295.3705 383.7431)" class="st51 st10 st52">N</text>
			</g>
			<g>
				<text transform="matrix(1 -0.364 0 1 265.8274 394.4968)" class="st51 st10 st52">B</text>
			</g>
			<g>
				<text transform="matrix(1 -0.364 0 1 235.9098 405.3858)" class="st51 st10 st52">V</text>
			</g>
			<g>
				<text transform="matrix(1 -0.364 0 1 204.7039 416.7438)" class="st51 st10 st52">C</text>
			</g>
			<g>
				<text transform="matrix(1 -0.364 0 1 175.66 427.3148)" class="st51 st10 st52">X</text>
			</g>
			<g>
				<text transform="matrix(1 -0.364 0 1 145.4093 438.3251)" class="st51 st10 st52">Z</text>
			</g>
		</g>
		<polygon class="st53" points="110.6,450.3 114.6,448.9 114.6,443.7 119.6,441.9 110.6,436.2 101.6,448.5 106.5,446.7 106.5,451.8 
					"/>
		<g>
			<polygon class="st53" points="384.2,343.8 384.2,351.2 369.8,356.4 362.5,351.7 369.8,341.7 384.2,336.5 			"/>
			<line class="st53" x1="372.5" y1="344.8" x2="379" y2="348.9"/>
			<line class="st53" x1="379" y1="342.4" x2="372.5" y2="351.3"/>
		</g>
		<g>
			<text transform="matrix(1 -0.364 0 1 97.268 504.5595)" class="st54 st10 st55">123</text>
		</g>
		<g>
			<path class="st56" d="M155.2,478.2c0,4.4-3.6,9.3-8,10.9s-8-0.7-8-5.1s3.6-9.3,8-10.9S155.2,473.8,155.2,478.2z"/>
			<path class="st56" d="M153.1,473.5c-1,2-3.2,3.9-5.8,4.8s-4.8,0.6-5.8-0.6"/>
			<path class="st56" d="M153.1,484.4c-1-1.2-3.2-1.5-5.8-0.6s-4.8,2.9-5.8,4.8"/>
			<path class="st56" d="M151.5,479.5c0,4.4-1.9,8.7-4.2,9.5s-4.2-2-4.2-6.4s1.9-8.7,4.2-9.5S151.5,475.1,151.5,479.5z"/>
			<line class="st56" x1="147.2" y1="473.1" x2="147.2" y2="489"/>
			<line class="st56" x1="139.3" y1="484" x2="155.2" y2="478.2"/>
		</g>
		<g>
			<path class="st53" d="M184.2,467.9c0,1.6-1.3,3.3-2.8,3.9l0,0c-1.6,0.6-2.8-0.2-2.8-1.8v-6.6c0-1.6,1.3-3.3,2.8-3.9l0,0
				c1.6-0.6,2.8,0.2,2.8,1.8V467.9z"/>
			<path class="st53" d="M186.2,464.2v3c0,2.7-2.2,5.6-4.8,6.6c-2.7,1-4.8-0.4-4.8-3.1v-3"/>
			<line class="st53" x1="181.3" y1="473.8" x2="181.3" y2="477.5"/>
			<line class="st53" x1="178.3" y1="478.6" x2="184.3" y2="476.4"/>
		</g>
		<g>
			<text transform="matrix(0.9719 -0.3538 0 1 203.1509 464.5209)" class="st54 st10 st25">space</text>
		</g>
		<g>
			<text transform="matrix(0.9719 -0.3538 0 1 252.437 450.1213)" class="st54 st10 st57">@</text>
		</g>
		<g>
			<text transform="matrix(0.9719 -0.3538 0 1 297.0459 433.8843)" class="st58 st10 st59">.</text>
		</g>
		<g>
			<text transform="matrix(0.9719 -0.3538 0 1 336.6847 416.4185)" class="st54 st10 st44">return</text>
		</g>
	</g>
	<path class="st1" d="M165.7-2.8c0,8.3-6.7,17.4-15,20.5c-8.3,3-15-1.3-15-9.5c0-8.3,6.7-17.4,15-20.5C159-15.3,165.7-11,165.7-2.8z
		"/>
	<path class="st1" d="M205.7-17.3c0,8.3-6.7,17.4-15,20.5c-8.3,3-15-1.3-15-9.5c0-8.3,6.7-17.4,15-20.5S205.7-25.6,205.7-17.3z"/>
	<path class="st2" d="M158.8-0.2c0,4.4-3.6,9.4-8.1,11s-8.1-0.7-8.1-5.1s3.6-9.4,8.1-11C155.2-7,158.8-4.7,158.8-0.2z"/>
	<g class="st5">
		<g>
			<path class="st6" d="M234.3,49.4c-1.1,0-1.8-0.8-1.8-1.9v-86c0-1.3,1-2.7,2.3-3.2l269.2-98c0.3-0.1,0.6-0.2,0.9-0.2
				c1.1,0,1.8,0.8,1.8,1.9v86c0,1.3-1,2.7-2.3,3.2l-269.2,98C234.9,49.3,234.6,49.4,234.3,49.4z"/>
			<path class="st7" d="M504.8-139.4c0.8,0,1.3,0.5,1.3,1.4v86c0,1.1-0.9,2.3-2,2.7L235,48.7c-0.2,0.1-0.5,0.1-0.7,0.1
				c-0.8,0-1.3-0.5-1.3-1.4v-86c0-1.1,0.9-2.3,2-2.7l269.2-98C504.4-139.3,504.6-139.4,504.8-139.4 M504.8-140.4
				c-0.3,0-0.7,0.1-1,0.2l-269.2,98c-1.5,0.5-2.7,2.2-2.7,3.7v86c0,1.4,1,2.4,2.3,2.4c0.3,0,0.7-0.1,1-0.2l269.2-98
				c1.5-0.5,2.7-2.2,2.7-3.7v-86C507.1-139.4,506.2-140.4,504.8-140.4L504.8-140.4z"/>
		</g>
		<text transform="matrix(1 -0.364 0 1 245.292 -21.4912)" class="st9 st10 st11">Text Field</text>
	</g>
	<g class="st5">
		<g>
			<g>
				<defs>
					<polygon id="SVGID_3_" points="1007.5,-74.3 531.8,98.8 531.8,-148.6 1007.5,-321.7 					"/>
				</defs>
				<clipPath id="SVGID_4_">
					<use xlink:href="#SVGID_3_"  style="overflow:visible;"/>
				</clipPath>
				<g class="st60">
					<polygon class="st22" points="1007.5,-74.3 531.8,98.8 531.8,-148.6 1007.5,-321.7 					"/>
					<polyline class="st23" points="1008.1,-244.2 991.7,-227.3 959.7,-253.2 924.1,-207.4 907.4,-210.8 877,-158 851.1,-210.5 
						825.5,-175.4 763.1,-135.2 744.2,-104.9 727.9,-125.3 714.9,-90.4 698.3,-89.8 688.2,-58.3 649.1,-38.2 633.4,-21.5 
						606.1,-18.4 570.8,21.5 531.5,40 					"/>
					<polyline class="st20" points="531.5,-37.7 539.6,-29.1 547,-37.6 559.9,-34.6 571.3,-47.2 578.2,-36.8 588.9,-31.4 
						588.9,-22.9 613.2,-31.8 625.1,-47.1 627.5,-57 640.1,-61.3 658.3,-61.4 676.9,-50.4 684.7,-36.4 706.2,-33.3 708.9,-50.2 
						723.3,-62.5 738.6,-65.6 748.3,-75.9 754.4,-64.3 780.1,-44.6 797.5,-64 810.6,-53.8 816.6,-81.7 837,-70.2 848,-88.2 
						878.5,-112.2 886,-136 895,-127.2 900.7,-144.9 907.9,-141.5 913,-153.5 932.4,-166.3 939.6,-175.2 944.1,-151.4 967.1,-163.6 
						989.5,-188.2 1008.1,-215.2 					"/>
					<g>
						<text transform="matrix(1 -0.364 0 1 545.5209 -123.9259)" class="st9 st10 st24">432.61</text>
					</g>
					<g>
						<text transform="matrix(1 -0.364 0 1 545.4457 -108.7071)" class="st19 st10 st25">12.156</text>
					</g>
					<g>
						<g>
							<line class="st26" x1="532.1" y1="-64.6" x2="534" y2="-65.3"/>
							<line class="st27" x1="539.6" y1="-67.3" x2="1003.4" y2="-236.2"/>
							<line class="st26" x1="1006.2" y1="-237.2" x2="1008.1" y2="-237.9"/>
						</g>
					</g>
				</g>
			</g>
		</g>
		<polygon class="st28" points="1007.5,-74.3 531.8,98.8 531.8,-148.6 1007.5,-321.7 		"/>
	</g>
	<g class="st5">
		<g>
			<path class="st6" d="M1072.2,654c-1.1,0-1.8-0.8-1.8-1.9v-36c0-1.3,1-2.7,2.3-3.2l96-34.9c0.3-0.1,0.6-0.2,0.9-0.2
				c1.1,0,1.8,0.8,1.8,1.9v36c0,1.3-1,2.7-2.3,3.2l-96,34.9C1072.7,653.9,1072.4,654,1072.2,654z"/>
			<path class="st7" d="M1169.5,578.3c0.8,0,1.3,0.5,1.3,1.4v36c0,1.1-0.9,2.3-2,2.7l-96,34.9c-0.2,0.1-0.5,0.1-0.7,0.1
				c-0.8,0-1.3-0.5-1.3-1.4v-36c0-1.1,0.9-2.3,2-2.7l96-34.9C1169.1,578.3,1169.3,578.3,1169.5,578.3 M1169.5,577.3
				c-0.3,0-0.7,0.1-1,0.2l-96,34.9c-1.5,0.5-2.7,2.2-2.7,3.7v36c0,1.4,1,2.4,2.3,2.4c0.3,0,0.7-0.1,1-0.2l96-34.9
				c1.5-0.5,2.7-2.2,2.7-3.7v-36C1171.8,578.3,1170.9,577.3,1169.5,577.3L1169.5,577.3z"/>
		</g>
		<g id="XMLID_2_">
			<g>
				<g>
					<path class="st6" d="M1182.2,613.9c-1.1,0-1.8-0.8-1.8-1.9v-36c0-1.3,1-2.7,2.3-3.2l68-24.8c0.4-0.1,0.8-0.2,1.2-0.2
						c0.6,0,1.1,0.2,1.5,0.5c0.5,0.4,11.6,13.1,11.7,13.2l-0.3,0.4l0.4-0.3c0.4,0.5,0.6,1,0.6,1.7c0,0.6-0.2,1.3-0.5,1.8l-0.2,0.3
						c-11.2,21-11.5,21.4-11.6,21.6c-0.5,0.8-1.3,1.4-2.1,1.8l0,0l-0.3,0.1l-68,24.8C1182.7,613.9,1182.4,613.9,1182.2,613.9z"/>
					<path class="st7" d="M1251.8,548.4c0.5,0,0.9,0.1,1.2,0.4c0.4,0.3,8.6,9.7,11.6,13.1c0,0.1,0.1,0.1,0.1,0.2
						c0.3,0.3,0.4,0.8,0.4,1.3s-0.1,1.1-0.4,1.6c0,0.1-0.1,0.2-0.2,0.3c-3,5.7-11.2,21-11.6,21.5c-0.5,0.8-1.3,1.5-2.2,1.8l0,0
						l-68,24.8c-0.2,0.1-0.5,0.1-0.7,0.1c-0.8,0-1.3-0.5-1.3-1.4v-36c0-1.1,0.9-2.3,2-2.7l68-24.8
						C1251.2,548.4,1251.5,548.4,1251.8,548.4 M1251.8,547.4L1251.8,547.4c-0.4,0-0.9,0.1-1.3,0.2l-68,24.8
						c-1.5,0.5-2.7,2.2-2.7,3.7v36c0,1.4,1,2.4,2.3,2.4c0.3,0,0.7-0.1,1-0.2l68-24.8l0.7-0.2v-0.1c0.8-0.4,1.5-1.1,2-1.9
						c0.1-0.2,0.4-0.6,11.6-21.6l0.1-0.1c0-0.1,0.1-0.1,0.1-0.2c0.3-0.7,0.5-1.4,0.5-2.1c0-0.8-0.2-1.4-0.6-1.9l-0.1-0.1l0,0l0,0
						l0,0c-1.1-1.3-11.2-12.9-11.8-13.3C1253.1,547.6,1252.5,547.4,1251.8,547.4L1251.8,547.4z"/>
				</g>
			</g>
		</g>
		<g id="XMLID_1_">
			<g>
				<g>
					<path class="st6" d="M989.7,683.9c-0.6,0-1.1-0.2-1.5-0.5c-0.5-0.4-11.2-12.7-11.7-13.2l-0.1-0.1c-0.4-0.5-0.6-1-0.6-1.7
						c0-0.6,0.2-1.3,0.5-1.8l0.2-0.3c5.1-9.6,11.3-21.1,11.6-21.6c0.5-0.8,1.3-1.4,2.1-1.8l0,0l0.3-0.1l68-24.8
						c0.3-0.1,0.6-0.2,0.9-0.2c1.1,0,1.8,0.8,1.8,1.9v36c0,1.3-1,2.7-2.3,3.2l-68,24.8C990.5,683.9,990.1,683.9,989.7,683.9z"/>
					<path class="st7" d="M1059.4,618.4c0.8,0,1.3,0.5,1.3,1.4v36c0,1.1-0.9,2.3-2,2.7l-68,24.8c-0.3,0.1-0.7,0.2-1,0.2
						c-0.5,0-0.9-0.1-1.2-0.4c-0.4-0.3-8.6-9.7-11.6-13.1c0-0.1-0.1-0.1-0.1-0.2c-0.3-0.3-0.4-0.8-0.4-1.3s0.1-1.1,0.4-1.6
						c0-0.1,0.1-0.2,0.2-0.3c3-5.7,11.2-21,11.6-21.5c0.5-0.8,1.3-1.5,2.2-1.8l0,0l68-24.8C1059,618.4,1059.2,618.4,1059.4,618.4
						 M1059.4,617.4L1059.4,617.4c-0.3,0-0.7,0.1-1,0.2l-68,24.8l-0.7,0.2v0.1c-0.8,0.4-1.5,1.1-2,1.9c-0.1,0.1-0.4,0.6-11.6,21.6
						l-0.1,0.1c0,0.1-0.1,0.1-0.1,0.2c-0.3,0.7-0.5,1.4-0.5,2.1c0,0.8,0.2,1.4,0.6,1.9l0,0l0.1,0.1l0,0l0,0l0,0
						c2.6,3,11.3,12.9,11.8,13.3c0.5,0.4,1.1,0.6,1.8,0.6c0.4,0,0.9-0.1,1.3-0.2l68-24.8c1.5-0.5,2.7-2.2,2.7-3.7v-36
						C1061.7,618.4,1060.8,617.4,1059.4,617.4L1059.4,617.4z"/>
				</g>
			</g>
		</g>
		<text transform="matrix(1 -0.364 0 1 1097.5906 628.8464)" class="st9 st10 st11">Hire Me</text>
		<text transform="matrix(1 -0.364 0 1 1204.698 589.8622)" class="st9 st10 st11">Next</text>
		<text transform="matrix(1 -0.364 0 1 1006.6275 661.953)" class="st9 st10 st11">Back</text>
	</g>
	<g class="st5">
		<g>
			<path class="st6" d="M990.8,754.7c-0.6,0-1.1-0.2-1.5-0.5c-0.5-0.4-11.2-12.7-11.7-13.2c0-0.1-0.1-0.1-0.1-0.1
				c-0.4-0.5-0.6-1-0.6-1.7c0-0.6,0.2-1.3,0.5-1.8l0.2-0.3c5.1-9.6,11.3-21.1,11.6-21.6c0.5-0.8,1.3-1.4,2.1-1.8l0,0l0.3-0.1l140-51
				c0.4-0.1,0.8-0.2,1.2-0.2c0.6,0,1.1,0.2,1.5,0.5c0.5,0.4,11.6,13.1,11.7,13.2c0,0.1,0.1,0.1,0.1,0.1c0.4,0.5,0.6,1,0.6,1.7
				c0,0.6-0.2,1.3-0.5,1.8l-0.2,0.3c-11.2,21-11.5,21.4-11.6,21.6c-0.5,0.8-1.3,1.4-2.1,1.8l0,0l-0.3,0.1l-140,51
				C991.5,754.6,991.1,754.7,990.8,754.7L990.8,754.7z"/>
			<path class="st7" d="M1132.7,662.8c0.5,0,0.9,0.1,1.2,0.4c0.4,0.3,8.6,9.7,11.6,13.1c0,0.1,0.1,0.1,0.1,0.2
				c0.3,0.3,0.4,0.8,0.4,1.3s-0.1,1.1-0.4,1.6c0,0.1-0.1,0.2-0.2,0.3c-3,5.7-11.2,21-11.6,21.5c-0.5,0.8-1.3,1.5-2.2,1.8l0,0
				l-140,51c-0.3,0.1-0.7,0.2-1,0.2c-0.5,0-0.9-0.1-1.2-0.4c-0.4-0.3-8.6-9.7-11.6-13.1c0-0.1-0.1-0.1-0.1-0.2
				c-0.3-0.3-0.4-0.8-0.4-1.3s0.1-1.1,0.4-1.6c0-0.1,0.1-0.2,0.2-0.3c3-5.7,11.2-21,11.6-21.5c0.5-0.8,1.3-1.5,2.2-1.8l0,0l140-51
				C1132.1,662.9,1132.4,662.8,1132.7,662.8 M1132.7,661.8c-0.4,0-0.9,0.1-1.3,0.2l-140,51l-0.7,0.2v0.1c-0.8,0.4-1.5,1.1-2,1.9
				c-0.1,0.1-0.4,0.6-11.6,21.6l-0.1,0.1c0,0.1-0.1,0.1-0.1,0.2c-0.3,0.7-0.5,1.4-0.5,2.1c0,0.8,0.2,1.4,0.6,1.9l0,0l0.1,0.1l0,0
				l0,0l0,0c2.6,3,11.3,12.9,11.8,13.3c0.5,0.4,1.1,0.6,1.8,0.6c0.4,0,0.9-0.1,1.3-0.2l140-51l0.7-0.2v-0.1c0.8-0.4,1.5-1.1,2-1.9
				c0.1-0.2,0.4-0.6,11.6-21.6l0.1-0.1c0-0.1,0.1-0.1,0.1-0.2c0.3-0.7,0.5-1.4,0.5-2.1c0-0.8-0.2-1.4-0.6-1.9l0,0v-0.1l0,0l0,0l0,0
				c-1.1-1.3-11.2-12.9-11.7-13.3C1134,662,1133.4,661.8,1132.7,661.8L1132.7,661.8z"/>
		</g>
		<text transform="matrix(1 -0.364 0 1 1085.593 704.3004)" class="st9 st10 st11">Next</text>
		<text transform="matrix(1 -0.364 0 1 1007.6351 732.6741)" class="st9 st10 st11">Back</text>
		<g>
			<path class="st6" d="M1224.6,668.5c-8.2,0-13.7-5.8-13.7-14.5c0-11.2,9.1-23.7,20.3-27.7c2.4-0.9,4.8-1.3,7-1.3
				c8.2,0,13.7,5.8,13.7,14.5c0,11.2-9.1,23.7-20.3,27.7C1229.2,668.1,1226.9,668.5,1224.6,668.5z"/>
			<path class="st7" d="M1238.3,625.4c7.7,0,13.2,5.4,13.2,14c0,11-9,23.3-20,27.3c-2.4,0.9-4.7,1.3-6.8,1.3
				c-7.7,0-13.2-5.4-13.2-14c0-11,9-23.3,20-27.3C1233.9,625.8,1236.2,625.4,1238.3,625.4 M1238.3,624.4c-2.3,0-4.7,0.5-7.2,1.3
				c-11.4,4.1-20.7,16.8-20.7,28.2c0,9,5.7,15,14.2,15c2.3,0,4.7-0.5,7.2-1.3c11.4-4.1,20.7-16.8,20.7-28.2
				C1252.4,630.5,1246.8,624.4,1238.3,624.4L1238.3,624.4z"/>
		</g>
		<polyline class="st12" points="1229.7,653.6 1236,645.1 1229.7,641.1 		"/>
		<g>
			<path class="st6" d="M1174.6,686.7c-8.2,0-13.7-5.8-13.7-14.5c0-11.2,9.1-23.7,20.3-27.7c2.4-0.9,4.8-1.3,7-1.3
				c8.2,0,13.7,5.8,13.7,14.5c0,11.2-9.1,23.7-20.3,27.7C1179.2,686.3,1176.9,686.7,1174.6,686.7z"/>
			<path class="st7" d="M1188.3,643.6c7.7,0,13.2,5.4,13.2,14c0,11-9,23.3-20,27.3c-2.4,0.9-4.7,1.3-6.8,1.3
				c-7.7,0-13.2-5.4-13.2-14c0-11,9-23.3,20-27.3C1183.9,644,1186.2,643.6,1188.3,643.6 M1188.3,642.6c-2.3,0-4.7,0.5-7.2,1.3
				c-11.4,4.1-20.7,16.8-20.7,28.2c0,9,5.7,15,14.2,15c2.3,0,4.7-0.5,7.2-1.3c11.4-4.1,20.7-16.8,20.7-28.2
				C1202.4,648.7,1196.8,642.6,1188.3,642.6L1188.3,642.6z"/>
		</g>
		<polyline class="st12" points="1183.2,658 1176.9,666.6 1183.2,670.6 		"/>
		<line class="st13" x1="1061.7" y1="688.5" x2="1061.7" y2="728.5"/>
	</g>
</g>
<g id="Layer_2" class="st0">
</g>
</svg>
