<?xml version="1.0" encoding="utf-8"?>
<!-- Generator: Adobe Illustrator 20.1.0, SVG Export Plug-In . SVG Version: 6.00 Build 0)  -->
<svg version="1.1" xmlns="http://www.w3.org/2000/svg" xmlns:xlink="http://www.w3.org/1999/xlink" x="0px" y="0px"
	 viewBox="0 0 1367.8 971.4" style="enable-background:new 0 0 1367.8 971.4;" xml:space="preserve">
<style type="text/css">
	.st0{font-family:'Helvetica-Bold';}
	.st1{font-size:24px;}
	.st2{letter-spacing:-2;}
	.st3{fill:#9900FF;}
	.st4{fill:#0066FF;}
	.st5{fill:#33CCFF;}
	.st6{font-family:'Helvetica-Light';}
	.st7{fill:#CC9900;}
	.st8{fill:#FF33FF;}
	.st9{fill:#CC0000;}
	.st10{fill:#339900;}
	.st11{fill:#663300;}
	.st12{fill:#660066;}
	.st13{fill:#00CC33;}
	.st14{fill:#FF6633;}
	.st15{fill:#FF9966;}
	.st16{fill:#993300;}
	.st17{fill:none;stroke:#979797;stroke-miterlimit:10;}
	.st18{display:none;}
	.st19{display:inline;fill:none;stroke:#979797;stroke-miterlimit:10;}
	.st20{fill:none;stroke:#339900;stroke-miterlimit:10;}
	.st21{opacity:0.5;}
	.st22{fill:none;stroke:#000000;stroke-miterlimit:10;stroke-dasharray:2;}
	.st23{fill:none;stroke:#CC0000;stroke-miterlimit:10;}
	.st24{fill:none;stroke:#000000;stroke-miterlimit:10;}
	.st25{fill:none;stroke:#FF33FF;stroke-miterlimit:10;}
	.st26{fill:none;stroke:#993300;stroke-miterlimit:10;}
	.st27{fill:none;stroke:#FF9966;stroke-miterlimit:10;}
	.st28{fill:none;stroke:#FF6633;stroke-miterlimit:10;}
	.st29{fill:none;stroke:#000000;stroke-miterlimit:10;stroke-dasharray:2.0034,2.0034;}
	.st30{fill:none;stroke:#000000;stroke-miterlimit:10;stroke-dasharray:1.9959,1.9959;}
	.st31{fill:none;stroke:#000000;stroke-miterlimit:10;stroke-dasharray:2.0024,2.0024;}
	.st32{fill:none;stroke:#000000;stroke-miterlimit:10;stroke-dasharray:2.0042,2.0042;}
	.st33{fill:none;stroke:#000000;stroke-miterlimit:10;stroke-dasharray:2.0013,2.0013;}
	.st34{fill:none;stroke:#00CC33;stroke-miterlimit:10;}
	.st35{fill:none;stroke:#663300;stroke-miterlimit:10;stroke-dasharray:2;}
	.st36{fill:none;stroke:#33CCFF;stroke-miterlimit:10;}
	.st37{fill:none;stroke:#000000;stroke-miterlimit:10;stroke-dasharray:2.0022,2.0022;}
	.st38{fill:none;stroke:#000000;stroke-miterlimit:10;stroke-dasharray:1.9976,1.9976;}
	.st39{fill:none;stroke:#000000;stroke-miterlimit:10;stroke-dasharray:2.0028,2.0028;}
	.st40{fill:none;stroke:#000000;stroke-miterlimit:10;stroke-dasharray:1.9988,1.9988;}
	.st41{fill:none;stroke:#000000;stroke-miterlimit:10;stroke-dasharray:1.9979,1.9979;}
	.st42{fill:none;stroke:#9900FF;stroke-miterlimit:10;}
	.st43{fill:none;stroke:#660066;stroke-miterlimit:10;stroke-dasharray:2;}
	.st44{fill:none;stroke:#CC9900;stroke-miterlimit:10;stroke-dasharray:2;}
	.st45{fill:none;stroke:#333333;stroke-miterlimit:10;}
	.st46{fill:none;stroke:#0066FF;stroke-miterlimit:10;stroke-dasharray:2;}
</style>
<g id="Layer_1">
	<text transform="matrix(1 0 0 1 741.8876 846.8734)" class="st0 st1">Polar and alpine climates</text>
	<text transform="matrix(1 0 0 1 741.8876 355.8734)" class="st0 st1">Temperate climates</text>
	<text transform="matrix(1 0 0 1 741.8876 245.8734)" class="st0 st1">Dry climates</text>
	<text transform="matrix(1 0 0 1 741.8876 82.8734)" class="st0 st1">Tropical Climates</text>
	<text transform="matrix(1 0 0 1 741.8876 627.8734)" class="st0 st1">Continental climates</text>
	<text transform="matrix(1 0 0 1 985.8415 846.8734)"><tspan x="0" y="0" class="st0 st1 st2">T</tspan><tspan x="12.5" y="0" class="st0 st1">undra climate</tspan></text>
	<text transform="matrix(1 0 0 1 985.8415 792.8734)"><tspan x="0" y="0" class="st0 st1">Continental suba</tspan><tspan x="194.7" y="0" class="st0 st1">r</tspan><tspan x="203.6" y="0" class="st0 st1">ctic climate</tspan></text>
	<text transform="matrix(1 0 0 1 985.8415 736.8734)"><tspan x="0" y="0" class="st0 st1 st2">T</tspan><tspan x="12" y="0" class="st0 st1">aiga climate</tspan></text>
	<text transform="matrix(1 0 0 1 985.8415 355.8734)" class="st0 st1">Mediterranean climate</text>
	<text transform="matrix(1 0 0 1 985.8415 299.8734)" class="st0 st1">Steppe climate</text>
	<text transform="matrix(1 0 0 1 985.8415 245.8734)"><tspan x="0" y="0" class="st0 st1">Dese</tspan><tspan x="57.4" y="0" class="st0 st1">r</tspan><tspan x="67.1" y="0" class="st0 st1">t climate</tspan></text>
	<text transform="matrix(1 0 0 1 985.8415 191.8734)" class="st0 st1">Savanna climate</text>
	<text transform="matrix(1 0 0 1 985.8415 136.8734)"><tspan x="0" y="0" class="st0 st1 st2">T</tspan><tspan x="12.5" y="0" class="st0 st1">r</tspan><tspan x="21.4" y="0" class="st0 st1">opical monsoon climate</tspan></text>
	<text transform="matrix(1 0 0 1 985.8415 82.8734)"><tspan x="0" y="0" class="st0 st1 st2">T</tspan><tspan x="12.5" y="0" class="st0 st1">r</tspan><tspan x="21.4" y="0" class="st0 st1">opical rainfo</tspan><tspan x="164" y="0" class="st0 st1">r</tspan><tspan x="173" y="0" class="st0 st1">est climate</tspan></text>
	<text transform="matrix(1 0 0 1 985.8415 682.8734)"><tspan x="0" y="0" class="st0 st1">Hemibo</tspan><tspan x="88" y="0" class="st0 st1">r</tspan><tspan x="96.9" y="0" class="st0 st1">eal climate</tspan></text>
	<text transform="matrix(1 0 0 1 985.8415 627.8734)" class="st0 st1">Hot summer continental climate</text>
	<text transform="matrix(1 0 0 1 985.8415 573.8734)"><tspan x="0" y="0" class="st0 st1 st2">T</tspan><tspan x="12" y="0" class="st0 st1">emperatu</tspan><tspan x="120" y="0" class="st0 st1">r</tspan><tspan x="128.9" y="0" class="st0 st1">e highland climate</tspan></text>
	<text transform="matrix(1 0 0 1 985.8415 518.8734)"><tspan x="0" y="0" class="st0 st1">Maritime suba</tspan><tspan x="161.4" y="0" class="st0 st1">r</tspan><tspan x="170.3" y="0" class="st0 st1">ctic climate</tspan></text>
	<text transform="matrix(1 0 0 1 985.8415 464.8734)"><tspan x="0" y="0" class="st0 st1">Maritime temperatu</tspan><tspan x="221.4" y="0" class="st0 st1">r</tspan><tspan x="230.3" y="0" class="st0 st1">e climate</tspan></text>
	<text transform="matrix(1 0 0 1 985.8415 409.8734)"><tspan x="0" y="0" class="st0 st1 st2">T</tspan><tspan x="12" y="0" class="st0 st1">emperate climate</tspan></text>
	<text transform="matrix(1 0 0 1 985.8415 901.8734)" class="st0 st1">Ice cap climate</text>
	<text transform="matrix(1 0 0 1 66.8838 717.8734)" class="st3 st0 st1">Poison</text>
	<text transform="matrix(1 0 0 1 81.0718 909.8734)"><tspan x="0" y="0" class="st4 st0 st1">W</tspan><tspan x="21.8" y="0" class="st4 st0 st1">ater</tspan></text>
	<text transform="matrix(1 0 0 1 64.2002 668.8734)" class="st0 st1">Normal</text>
	<text transform="matrix(1 0 0 1 89.5245 862.8734)" class="st0 st1">Steel</text>
	<text transform="matrix(1 0 0 1 113.5279 620.8734)" class="st5 st6 st1">Ice</text>
	<text transform="matrix(1 0 0 1 88.2002 813.8734)" class="st7 st0 st1">Rock</text>
	<text transform="matrix(1 0 0 1 89.5245 284.8734)" class="st8 st0 st1">Fairy</text>
	<text transform="matrix(1 0 0 1 60.169 235.8734)" class="st0 st1">Electric</text>
	<text transform="matrix(1 0 0 1 62.8877 187.8734)" class="st9 st0 st1">Dragon</text>
	<text transform="matrix(1 0 0 1 93.5205 140.8734)" class="st0 st1">Dark</text>
	<text transform="matrix(1 0 0 1 100.2354 92.8734)" class="st10 st0 st1">Bug</text>
	<text transform="matrix(1 0 0 1 60.2393 573.8734)" class="st11 st0 st1">Ground</text>
	<text transform="matrix(1 0 0 1 56.1612 765.8734)" class="st12 st0 st1">Psychic</text>
	<text transform="matrix(1 0 0 1 78.837 524.8734)" class="st13 st0 st1">Grass</text>
	<text transform="matrix(1 0 0 1 77.5596 476.8734)" class="st0 st1">Ghost</text>
	<text transform="matrix(1 0 0 1 102.8721 429.8734)" class="st14 st0 st1">Fire</text>
	<text transform="matrix(1 0 0 1 76.2237 381.8734)" class="st15 st0 st1">Flying</text>
	<text transform="matrix(1 0 0 1 52.2588 331.8734)" class="st16 st0 st1">Fighting</text>
	<path class="st17" d="M711.7,971.4"/>
</g>
<g id="Layer_2" class="st18">
	<path class="st19" d="M384.9,86.3c179.1,0,379.6-9.2,561-9.2"/>
	<path class="st19" d="M384.9,86c179.1,0,379.2,45.1,560.7,45.1"/>
	<path class="st19" d="M385,131.6c179.1,0,379.8,163.8,561.3,163.8"/>
	<path class="st19" d="M385.4,903.2c179.4,0,380-826.3,561-826.3"/>
	<path class="st19" d="M384.5,468c180,0,378.7,99.1,561.6,99.1"/>
	<path class="st19" d="M385.3,565.8c180.3,0,378.8-269.8,561.5-269.8"/>
	<path class="st19" d="M385.3,516.8c180.3,0,378.8-328.9,561.5-328.9"/>
	<path class="st19" d="M385.3,663.7c180.3,0,378.8-42.8,561.5-42.8"/>
	<path class="st19" d="M385.3,229.2c180.3,0,378.8,11.2,561.5,11.2"/>
	<path class="st19" d="M385.3,422.1c180.6,0,380.2-126.7,561-126.7"/>
	<path class="st19" d="M384.3,805.9c181.3,0,379.6-75.6,561.9-75.6"/>
	<path class="st19" d="M385.2,758.5c181.3,0,379.4-81.6,561.7-81.6"/>
	<path class="st19" d="M386.1,325.6c179.5,0,379.5,570,559.5,570"/>
	<path class="st19" d="M387.2,325c176.6,0,377.8,516,557.1,516"/>
	<path class="st19" d="M385.3,663.7c180.3,0,378.8-423.3,561.5-423.3"/>
	<path class="st19" d="M385.3,516.8c180.3,0,378.8-385.6,561.5-385.6"/>
	<path class="st19" d="M385.3,516.8c180.3,0,378-439.6,560.6-439.6"/>
	<path class="st19" d="M385.3,422.1c180.6,0,380.7-16.9,561.6-16.9"/>
	<path class="st19" d="M385.3,422.1c180.6,0,380.7-69.8,561.6-69.8"/>
	<path class="st19" d="M385.3,422.1c180.6,0,380.7,35.7,561.6,35.7"/>
	<path class="st19" d="M387.2,325c176.6,0,377.8,462.3,557.1,462.3"/>
	<path class="st19" d="M385.4,903.2c179.4,0,380.4-772.1,561.5-772.1"/>
	<path class="st19" d="M385.4,903.2c179.4,0,380.4-715.4,561.5-715.4"/>
	<path class="st19" d="M385.4,903.2c179.4,0,380.4-550.9,561.5-550.9"/>
	<path class="st19" d="M385.4,903.2c179.4,0,380.4-498,561.5-498"/>
	<path class="st19" d="M385.4,903.2c179.4,0,380.4-445.5,561.5-445.5"/>
	<path class="st19" d="M385.4,903.2c179.4,0,380.4-390.3,561.5-390.3"/>
	<path class="st19" d="M385.4,903.2c179.4,0,380.4-226.4,561.5-226.4"/>
	<path class="st19" d="M385.4,903.2c179.4,0,379.8-173,560.8-173"/>
	<path class="st19" d="M385.4,903.2c179.4,0,377.9-116,558.9-116"/>
	<path class="st19" d="M384.3,805.9c181.3,0,377.7-18.6,560-18.6"/>
	<path class="st19" d="M384.3,805.9c181.3,0,377.7,35.1,560,35.1"/>
	<path class="st19" d="M384.5,468c180,0,379.5-62.8,562.3-62.8"/>
	<path class="st19" d="M384.5,468c180,0,379.5-172,562.3-172"/>
	<path class="st19" d="M385.3,709.7c181.3,0,378.6-142.6,560.9-142.6"/>
	<path class="st19" d="M385.3,709.7c181.3,0,379.3-469.3,561.6-469.3"/>
	<path class="st19" d="M385,131.6c179.1,0,380.4,273.6,561.9,273.6"/>
	<path class="st19" d="M385,131.6c179.1,0,380.4,326.2,561.9,326.2"/>
	<path class="st19" d="M385.3,229.2c180.3,0,378.8,66.8,561.5,66.8"/>
	<path class="st19" d="M385.3,565.8c180.3,0,378.8,55.1,561.5,55.1"/>
	<path class="st19" d="M385.3,565.8c180.3,0,378.1,1.3,560.8,1.3"/>
	<path class="st19" d="M385.3,565.8c180.3,0,378.1,1.3,560.8,1.3"/>
</g>
<g id="Layer_3">
</g>
<g id="Layer_4">
	<g>
		<path class="st20" d="M163.9,86.7c181,0,378.1-8,562-8"/>
		<path class="st20" d="M163.9,86.7c181,0,378.1,153.7,562,153.7"/>
		<path class="st20" d="M163.9,86.7c181,0,378.1,265.1,562,265.1"/>
		<path class="st20" d="M163.9,86.7c181,0,378.1,534.2,562,534.2"/>
	</g>
	<g class="st21">
		<path class="st22" d="M163.9,136.7c181,0,378.1-58,562-58"/>
		<path class="st22" d="M163.9,136.7c181,0,378.1,103.7,562,103.7"/>
		<path class="st22" d="M163.9,136.7c181,0,378.1,215.1,562,215.1"/>
		<path class="st22" d="M163.9,136.7c181,0,378.1,484.2,562,484.2"/>
		<path class="st22" d="M163.9,136.7c181,0,378.1,705.2,562,705.2"/>
	</g>
	<g>
		<path class="st23" d="M163.9,180.7"/>
		<path class="st23" d="M163.9,180.7c181,0,378.1,59.7,562,59.7"/>
		<path class="st23" d="M163.9,180.7c181,0,378.1,171.1,562,171.1"/>
		<path class="st23" d="M163.9,180.7c181,0,378.1,440.2,562,440.2"/>
	</g>
	<g>
		<path class="st24" d="M163.9,227.7"/>
		<path class="st24" d="M163.9,227.7c181,0,378.1,12.7,562,12.7"/>
		<path class="st24" d="M163.9,227.7c181,0,378.1,124.1,562,124.1"/>
		<path class="st24" d="M163.9,227.7c181,0,378.1,393.2,562,393.2"/>
	</g>
	<g>
		<path class="st25" d="M163.9,280.7"/>
		<path class="st25" d="M163.9,280.7c181,0,378.1,71.1,562,71.1"/>
		<path class="st25" d="M163.9,280.7c181,0,378.1,340.2,562,340.2"/>
	</g>
	<g>
		<path class="st26" d="M163.9,324.7"/>
		<path class="st26" d="M163.9,324.7c181,0,378.1-84.3,562-84.3"/>
		<path class="st26" d="M163.9,324.7c181,0,378.1,27.1,562,27.1"/>
	</g>
	<g>
		<path class="st27" d="M163.9,373.7"/>
		<path class="st27" d="M163.9,373.7c181,0,378.1-295,562-295"/>
		<path class="st27" d="M163.9,373.7c181,0,378.1-21.9,562-21.9"/>
		<path class="st27" d="M163.9,373.7c181,0,378.1,247.2,562,247.2"/>
	</g>
	<g>
		<path class="st28" d="M163.9,422.7"/>
		<path class="st28" d="M163.9,422.7c181,0,378.1-182.3,562-182.3"/>
		<path class="st28" d="M163.9,422.7c181,0,378.1,198.2,562,198.2"/>
	</g>
	<g class="st21">
		<g>
			<g>
				<path class="st24" d="M163.9,470.7c0.3,0,0.7,0,1,0"/>
				<path class="st29" d="M166.9,470.6c179.5-4.3,374.7-389.1,557-392"/>
				<path class="st24" d="M724.9,78.7c0.3,0,0.7,0,1,0"/>
			</g>
		</g>
		<g>
			<g>
				<path class="st24" d="M163.9,470.7c0.3,0,0.7,0,1,0"/>
				<path class="st30" d="M166.9,470.6c179.5-2.5,374.7-228.7,557-230.3"/>
				<path class="st24" d="M724.9,240.3c0.3,0,0.7,0,1,0"/>
			</g>
		</g>
		<g>
			<g>
				<path class="st24" d="M163.9,470.7c0.3,0,0.7,0,1,0"/>
				<path class="st31" d="M166.9,470.7c179.5-1.3,374.7-118,557-118.9"/>
				<path class="st24" d="M724.9,351.8c0.3,0,0.7,0,1,0"/>
			</g>
		</g>
		<g>
			<g>
				<path class="st24" d="M163.9,470.7c0.3,0,0.7,0,1,0"/>
				<path class="st32" d="M166.9,470.7c179.5,1.6,374.7,149.1,557,150.2"/>
				<path class="st24" d="M724.9,620.9c0.3,0,0.7,0,1,0"/>
			</g>
		</g>
		<g>
			<g>
				<path class="st24" d="M163.9,470.7c0.3,0,0.7,0,1,0"/>
				<path class="st33" d="M166.9,470.7c179.5,4,374.7,368.5,557,371.2"/>
				<path class="st24" d="M724.9,841.9c0.3,0,0.7,0,1,0"/>
			</g>
		</g>
	</g>
	<g>
		<path class="st34" d="M163.9,516.7c181,0,378.1-164.9,562-164.9"/>
		<path class="st34" d="M163.9,516.7c181,0,378.1,104.2,562,104.2"/>
	</g>
	<g class="st21">
		<path class="st35" d="M163.9,568.7c181,0,378.1-490,562-490"/>
		<path class="st35" d="M163.9,568.7c181,0,378.1-328.3,562-328.3"/>
		<path class="st35" d="M163.9,568.7c181,0,378.1-216.9,562-216.9"/>
		<path class="st35" d="M163.9,568.7c181,0,378.1,52.2,562,52.2"/>
		<path class="st35" d="M163.9,568.7c181,0,378.1,273.2,562,273.2"/>
	</g>
	<g>
		<path class="st36" d="M163.9,614.7c181,0,378.1,6.2,562,6.2"/>
		<path class="st36" d="M163.9,614.7c181,0,378.1,227.2,562,227.2"/>
	</g>
	<g class="st21">
		<g>
			<g>
				<path class="st24" d="M163.9,660.7c0.3,0,0.7,0,1,0"/>
				<path class="st37" d="M166.9,660.6c179.5-6.3,374.7-577.8,557-581.9"/>
				<path class="st24" d="M724.9,78.7c0.3,0,0.7,0,1,0"/>
			</g>
		</g>
		<g>
			<g>
				<path class="st24" d="M163.9,660.7c0.3,0,0.7,0,1,0"/>
				<path class="st38" d="M166.9,660.6c179.5-4.6,374.7-417.3,557-420.3"/>
				<path class="st24" d="M724.9,240.3c0.3,0,0.7,0,1,0"/>
			</g>
		</g>
		<g>
			<g>
				<path class="st24" d="M163.9,660.7c0.3,0,0.7,0,1,0"/>
				<path class="st39" d="M166.9,660.6c179.5-3.4,374.7-306.6,557-308.8"/>
				<path class="st24" d="M724.9,351.8c0.3,0,0.7,0,1,0"/>
			</g>
		</g>
		<g>
			<g>
				<path class="st24" d="M163.9,660.4c0.3,0,1,0,1,0"/>
				<path class="st40" d="M166.9,660.7c179.5-0.4,374.7-39.5,557-39.8"/>
				<path class="st24" d="M724.9,620.4c0,0,0.7,0,1,0"/>
			</g>
		</g>
		<g>
			<g>
				<path class="st24" d="M163.9,660.7c0.3,0,0.7,0,1,0"/>
				<path class="st41" d="M166.9,660.7c179.5,2,374.7,179.9,557,181.2"/>
				<path class="st24" d="M724.9,841.9c0.3,0,0.7,0,1,0"/>
			</g>
		</g>
	</g>
	<g>
		<path class="st42" d="M163.9,710.7c181,0,378.1-632,562-632"/>
		<path class="st42" d="M163.9,710.7c181,0,378.1-470.3,562-470.3"/>
	</g>
	<g class="st21">
		<path class="st43" d="M163.9,757.7c181,0,378.1-679,562-679"/>
		<path class="st43" d="M163.9,757.7c181,0,378.1-517.3,562-517.3"/>
		<path class="st43" d="M163.9,757.7c181,0,378.1-405.9,562-405.9"/>
		<path class="st43" d="M163.9,757.7c181,0,378.1-136.8,562-136.8"/>
		<path class="st43" d="M163.9,757.7c181,0,378.1,84.2,562,84.2"/>
	</g>
	<g class="st21">
		<path class="st44" d="M163.9,805.7c181,0,378.1-727,562-727"/>
		<path class="st44" d="M163.9,805.7c181,0,378.1-565.3,562-565.3"/>
		<path class="st44" d="M163.9,805.7c181,0,378.1-453.9,562-453.9"/>
		<path class="st44" d="M163.9,805.7c181,0,378.1-184.8,562-184.8"/>
		<path class="st44" d="M163.9,805.7c181,0,378.1,36.2,562,36.2"/>
	</g>
	<g>
		<path class="st45" d="M163.9,854.7c181,0,378.1-614.3,562-614.3"/>
		<path class="st45" d="M163.9,854.7c181,0,378.1-233.8,562-233.8"/>
		<path class="st45" d="M163.9,854.7c181,0,378.1-12.8,562-12.8"/>
	</g>
	<g class="st21">
		<path class="st46" d="M163.9,903.7c181,0,378.1-825,562-825"/>
		<path class="st46" d="M163.9,903.7c181,0,378.1-551.9,562-551.9"/>
		<path class="st46" d="M163.9,903.7c181,0,378.1-282.8,562-282.8"/>
		<path class="st46" d="M163.9,903.7c181,0,378.1-61.8,562-61.8"/>
		<path class="st46" d="M163.9,903.7c181,0,378.1-663.3,562-663.3"/>
	</g>
</g>
<g id="Time">
</g>
</svg>
